<svg width="21" height="21" viewBox="0 0 21 21" fill="none" xmlns="http://www.w3.org/2000/svg">
<circle cx="10.2188" cy="10.5" r="10" fill="#595550"/>
<path d="M14.2186 6.9002H12.8323L12.1511 5.87832C12.1145 5.82353 12.0651 5.7786 12.007 5.74753C11.9489 5.71645 11.8841 5.70019 11.8183 5.7002H8.61826C8.55241 5.70019 8.48758 5.71645 8.42952 5.74753C8.37146 5.7786 8.32197 5.82353 8.28545 5.87832L7.6042 6.9002H6.21855C5.90041 6.90056 5.59539 7.0271 5.37043 7.25207C5.14546 7.47703 5.01892 7.78205 5.01855 8.1002V13.7002C5.01892 14.0183 5.14546 14.3234 5.37043 14.5483C5.59539 14.7733 5.90041 14.8998 6.21855 14.9002H14.2186C14.5367 14.8998 14.8417 14.7733 15.0667 14.5483C15.2916 14.3234 15.4182 14.0183 15.4186 13.7002V8.1002C15.4182 7.78205 15.2916 7.47703 15.0667 7.25207C14.8417 7.0271 14.5367 6.90056 14.2186 6.9002ZM12.0186 10.7002C12.0186 11.0562 11.913 11.4042 11.7152 11.7002C11.5174 11.9962 11.2363 12.2269 10.9074 12.3632C10.5785 12.4994 10.2166 12.5351 9.86739 12.4656C9.51823 12.3962 9.1975 12.2247 8.94576 11.973C8.69403 11.7213 8.52259 11.4005 8.45314 11.0514C8.38369 10.7022 8.41933 10.3403 8.55557 10.0114C8.69181 9.68246 8.92252 9.40134 9.21853 9.20355C9.51454 9.00576 9.86255 8.9002 10.2186 8.9002C10.6958 8.90073 11.1533 9.09054 11.4908 9.42799C11.8282 9.76544 12.018 10.223 12.0186 10.7002Z" fill="#FFFDFA"/>
</svg>
