<svg width="32" height="32" viewBox="0 0 32 32" fill="none" xmlns="http://www.w3.org/2000/svg">
<path d="M27.999 15V26C27.9984 26.5303 27.7875 27.0386 27.4126 27.4136C27.0376 27.7885 26.5293 27.9994 25.999 28H5.99902C5.46878 27.9994 4.96042 27.7885 4.58548 27.4136C4.21054 27.0386 3.99963 26.5303 3.99902 26V6.00002C3.99963 5.46977 4.21054 4.96141 4.58548 4.58647C4.96042 4.21153 5.46878 4.00062 5.99902 4.00002H16.999C17.2642 4.00002 17.5186 4.10537 17.7061 4.29291C17.8937 4.48044 17.999 4.7348 17.999 5.00002C17.999 5.26523 17.8937 5.51959 17.7061 5.70712C17.5186 5.89466 17.2642 6.00002 16.999 6.00002H5.99902V26H25.999V15C25.999 14.7348 26.1044 14.4804 26.2919 14.2929C26.4795 14.1054 26.7338 14 26.999 14C27.2642 14 27.5186 14.1054 27.7061 14.2929C27.8937 14.4804 27.999 14.7348 27.999 15ZM28.7062 8.70711L16.7062 20.7071C16.5186 20.8947 16.2643 21 15.999 21H11.999C11.7338 21 11.4795 20.8946 11.2919 20.7071C11.1044 20.5196 10.999 20.2652 10.999 20V16C10.999 15.7348 11.1044 15.4805 11.2919 15.2929L23.2919 3.29292C23.3847 3.20005 23.495 3.12639 23.6163 3.07613C23.7376 3.02587 23.8677 3 23.999 3C24.1304 3 24.2604 3.02587 24.3817 3.07613C24.5031 3.12639 24.6133 3.20005 24.7062 3.29292L28.7062 7.29292C28.8937 7.48046 28.9991 7.73481 28.9991 8.00002C28.9991 8.26522 28.8937 8.51957 28.7062 8.70711ZM26.5848 8.00002L23.999 5.4142L22.4133 7.00002L24.9991 9.58583L26.5848 8.00002Z" fill="#595550"/>
</svg>
