<svg width="22" height="25" viewBox="0 0 22 25" fill="none" xmlns="http://www.w3.org/2000/svg">
<path fill-rule="evenodd" clip-rule="evenodd" d="M19.6257 18.6027L19.6273 18.6056C19.6359 18.6209 19.6428 18.6428 19.6429 18.6685C19.643 18.6942 19.6363 18.7163 19.6277 18.7319C19.6223 18.7416 19.6172 18.7471 19.614 18.75H1.81466C1.81146 18.7471 1.8063 18.7415 1.80093 18.7318C1.79229 18.7163 1.78562 18.6942 1.78572 18.6684C1.78581 18.6427 1.79265 18.6208 1.80129 18.6054L1.80289 18.6026C2.65342 17.0889 3.49992 14.5109 3.49992 10.2679L3.49992 9.33441L3.49992 9.33223C3.49745 7.31418 4.27057 5.38941 5.63099 3.97844C6.98846 2.5705 8.81748 1.78936 10.7125 1.78572L10.7728 1.78592C14.637 1.81767 17.9296 5.17417 17.9296 9.43982V10.2679C17.9296 14.511 18.7756 17.0889 19.6257 18.6027ZM1.80221 20.5357H19.6264C19.9437 20.5353 20.2552 20.4484 20.5296 20.2837C20.804 20.119 21.0316 19.8824 21.1895 19.5977C21.3473 19.313 21.4298 18.9902 21.4286 18.6621C21.4274 18.3339 21.3426 18.0118 21.1827 17.7283C20.5133 16.5363 19.7153 14.2744 19.7153 10.2679V9.43982C19.7153 4.27262 15.7083 0.0380621 10.7829 0.000233218L10.7141 0C8.32413 0.00321566 6.03327 0.988456 4.34547 2.73899C2.65767 4.48952 1.71118 6.86196 1.71421 9.33441V10.2679C1.71421 14.2742 0.915768 16.536 0.246089 17.7279C0.0861298 18.0113 0.00125237 18.3334 1.37532e-05 18.6617C-0.00122486 18.9899 0.0812195 19.3127 0.239035 19.5975C0.39685 19.8822 0.624455 20.1189 0.898899 20.2836C1.17334 20.4483 1.48492 20.5353 1.80221 20.5357ZM13.3928 20.5358C13.3928 22.0152 12.1936 23.2144 10.7143 23.2144C9.23494 23.2144 8.0357 22.0152 8.0357 20.5358H6.24999C6.24999 23.0014 8.24871 25.0001 10.7143 25.0001C13.1798 25.0001 15.1786 23.0014 15.1786 20.5358H13.3928Z" fill="#595550"/>
</svg>
