<svg width="22" height="28" viewBox="0 0 22 28" fill="none" xmlns="http://www.w3.org/2000/svg">
<path d="M2.98038 11.6203C4.3541 4.9705 13.5081 4.0378 17.6689 8.44356C20.1539 11.0743 20.1836 14.7171 18.5072 17.789C17.6662 19.3242 16.4814 20.6735 15.1037 21.747C13.598 22.9164 11.8738 23.3811 10.2342 24.2836C9.5395 24.6628 8.79719 25.1094 8.0475 25.2237C6.24502 25.5154 5.79886 23.1063 5.29039 22.0276C4.53653 20.5435 3.81216 18.8466 3.31386 16.9566C2.71331 15.1567 2.61362 13.3809 2.98038 11.6203Z" fill="#F27808"/>
<path d="M17.57 4.67712C17.1299 4.05188 16.3274 3.92478 15.6445 4.06931C15.8723 3.01951 15.3179 1.80471 14.1447 1.56539C13.3617 1.4157 12.6874 1.91753 12.3173 2.52114C12.2497 2.63268 12.1883 2.75133 12.1344 2.87532C11.569 2.38928 10.7798 2.17809 10.0339 2.51421C9.31733 2.84784 9.07912 3.64805 9.14568 4.35388C9.234 5.24919 9.7634 6.25713 10.6376 6.54411C11.3439 6.80955 14.5846 8.00017 15.4994 7.83426C15.7956 7.84688 16.084 7.80309 16.3518 7.71201C17.5772 7.32752 18.357 5.82523 17.57 4.67712Z" fill="#4A8A51"/>
<path d="M20.4348 6.80183C20.1509 6.09139 19.3995 5.78143 18.7018 5.76348C19.1657 4.79509 18.9066 3.48455 17.8205 2.97938C17.0933 2.65195 16.3215 2.98361 15.8222 3.48489C15.7306 3.5777 15.6436 3.67888 15.5625 3.78699C15.1246 3.18289 14.4056 2.79421 13.6024 2.94802C12.8283 3.10624 12.4119 3.82941 12.3138 4.53153C12.1931 5.42302 12.4755 6.52651 13.2598 7.00866C13.8857 7.43087 16.7636 9.34153 17.6918 9.3925C17.9771 9.47355 18.2678 9.49791 18.5493 9.47148C19.8302 9.38193 20.9354 8.10147 20.4348 6.80183Z" fill="#4A8A51"/>
<path fill-rule="evenodd" clip-rule="evenodd" d="M4.02304 8.79233C3.96931 8.65342 3.81367 8.58383 3.6747 8.63685C3.53527 8.69004 3.46542 8.84648 3.51867 8.98628L3.77111 8.88998C3.51867 8.98628 3.51872 8.98643 3.51878 8.98657L3.5189 8.98689L3.51917 8.9876L3.51985 8.98935L3.52173 8.99409C3.52322 8.99779 3.52518 9.00258 3.52764 9.00841C3.53257 9.02005 3.5395 9.03584 3.54865 9.05533C3.56695 9.09431 3.59413 9.14818 3.63188 9.21346C3.70736 9.344 3.82525 9.5205 3.99897 9.71481C4.34756 10.1048 4.91701 10.5619 5.80796 10.8641C5.94938 10.9121 6.10268 10.8361 6.15037 10.6945C6.19805 10.5528 6.12205 10.3991 5.98063 10.3511C5.18472 10.0811 4.69258 9.6795 4.4013 9.35366C4.25507 9.19009 4.15846 9.04446 4.09941 8.94233C4.0699 8.89129 4.04982 8.8512 4.03766 8.82529C4.03158 8.81235 4.0275 8.80297 4.02521 8.79756L4.0231 8.79247M4.02305 8.79234C4.02305 8.79233 4.02305 8.79233 4.02304 8.79233L4.02305 8.79234Z" fill="#BE630E"/>
<path fill-rule="evenodd" clip-rule="evenodd" d="M2.51373 12.0185C2.64727 11.9519 2.80954 12.0065 2.87617 12.1404L2.63437 12.261C2.87617 12.1404 2.87611 12.1403 2.87606 12.1402L2.87596 12.14L2.87581 12.1397L2.87567 12.1394C2.87565 12.1394 2.87577 12.1396 2.87604 12.1402L2.87939 12.1465C2.8828 12.1528 2.88856 12.1633 2.89675 12.1773C2.91316 12.2054 2.93924 12.2478 2.97566 12.3001C3.04863 12.4051 3.16225 12.549 3.32162 12.6993C3.63909 12.9986 4.13767 13.3231 4.86583 13.4169C5.01387 13.436 5.11861 13.5717 5.09976 13.72C5.08092 13.8684 4.94563 13.9731 4.79759 13.9541C3.93519 13.843 3.3351 13.4552 2.95155 13.0935C2.7604 12.9133 2.62291 12.7395 2.53241 12.6094C2.48709 12.5442 2.45334 12.4897 2.43035 12.4503C2.41885 12.4306 2.41002 12.4147 2.40376 12.403C2.40063 12.3972 2.39814 12.3925 2.39628 12.3889L2.39396 12.3844L2.39316 12.3828L2.39284 12.3821L2.3927 12.3818C2.39264 12.3817 2.39258 12.3816 2.63437 12.261L2.39258 12.3816C2.32595 12.2477 2.38019 12.0851 2.51373 12.0185Z" fill="#BE630E"/>
<path fill-rule="evenodd" clip-rule="evenodd" d="M18.9675 17.6352C19.0595 17.7531 19.0389 17.9234 18.9214 18.0155L18.7548 17.802C18.9214 18.0155 18.9213 18.0156 18.9212 18.0157L18.9209 18.0159L18.9201 18.0165L18.9182 18.018L18.9122 18.0225C18.9074 18.0262 18.9008 18.0311 18.8924 18.0371C18.8758 18.0492 18.8521 18.0659 18.8217 18.086C18.761 18.1263 18.6732 18.1807 18.5601 18.2411C18.3341 18.3617 18.006 18.5065 17.5907 18.6084C16.7559 18.8133 15.5801 18.8414 14.1941 18.1691C14.0597 18.1039 14.0033 17.9419 14.0682 17.8072C14.133 17.6726 14.2946 17.6163 14.429 17.6815C15.691 18.2936 16.7368 18.2601 17.4616 18.0822C17.8262 17.9927 18.1123 17.866 18.3057 17.7627C18.4023 17.7112 18.4754 17.6657 18.5232 17.634C18.5471 17.6182 18.5646 17.6058 18.5755 17.5979C18.581 17.5939 18.5848 17.5911 18.5869 17.5895L18.5886 17.5882L18.5884 17.5884C18.7059 17.4965 18.8755 17.5174 18.9675 17.6352Z" fill="#BE630E"/>
<path fill-rule="evenodd" clip-rule="evenodd" d="M16.0744 20.7092C16.2012 20.6313 16.3673 20.6707 16.4457 20.7976C16.5244 20.9247 16.4853 21.0915 16.3584 21.17L16.2221 20.9496C16.3584 21.17 16.3583 21.1701 16.3581 21.1702L16.357 21.1709L16.355 21.1721L16.3489 21.1758C16.3439 21.1787 16.3372 21.1827 16.3286 21.1875C16.3116 21.1972 16.2875 21.2105 16.2566 21.2265C16.1949 21.2584 16.106 21.3011 15.992 21.3474C15.7642 21.44 15.4352 21.5476 15.0227 21.6122C14.1946 21.7417 13.0381 21.6964 11.7004 21.0224C11.567 20.9552 11.5132 20.7925 11.5801 20.659C11.647 20.5256 11.8094 20.4718 11.9428 20.539C13.1698 21.1572 14.2105 21.1914 14.9386 21.0775C15.3041 21.0203 15.5928 20.9254 15.7882 20.846C15.8858 20.8063 15.9598 20.7706 16.0082 20.7456C16.0324 20.7331 16.0501 20.7232 16.0611 20.717C16.0667 20.7138 16.0705 20.7116 16.0726 20.7103L16.0744 20.7092Z" fill="#BE630E"/>
</svg>
