<svg width="11" height="13" viewBox="0 0 11 13" fill="none" xmlns="http://www.w3.org/2000/svg">
<path fill-rule="evenodd" clip-rule="evenodd" d="M10.8174 9.20985C10.7278 9.36508 10.6086 9.50114 10.4664 9.61026C10.3243 9.71938 10.162 9.79942 9.98894 9.8458C9.81585 9.89218 9.63531 9.90399 9.45765 9.88056C9.27999 9.85714 9.10868 9.79893 8.95353 9.70927L8.15735 9.24957C7.77599 9.5764 7.33774 9.83027 6.8645 9.99849V10.9154C6.8645 11.2772 6.72075 11.6243 6.46488 11.8802C6.209 12.136 5.86195 12.2798 5.50008 12.2798C5.13822 12.2798 4.79117 12.136 4.53529 11.8802C4.27941 11.6243 4.13566 11.2772 4.13566 10.9154V9.99849C3.66242 9.83027 3.22418 9.5764 2.84282 9.24957L2.04664 9.70926C1.89147 9.79885 1.72017 9.857 1.54252 9.88039C1.36487 9.90377 1.18436 9.89194 1.01129 9.84557C0.661749 9.75191 0.363734 9.52323 0.1828 9.20985C0.0932112 9.05467 0.0350625 8.88337 0.0116752 8.70573C-0.0117122 8.52808 0.000120591 8.34757 0.0464957 8.17449C0.140154 7.82496 0.36883 7.52694 0.682217 7.34601L1.47646 6.88744C1.3836 6.3934 1.3836 5.88639 1.47646 5.39235L0.682217 4.93378C0.36883 4.75285 0.140154 4.45484 0.0464957 4.1053C-0.047163 3.75576 0.00186684 3.38333 0.1828 3.06995C0.363734 2.75656 0.661749 2.52788 1.01129 2.43422C1.36082 2.34057 1.73325 2.3896 2.04664 2.57053L2.84282 3.03022C3.22418 2.7034 3.66242 2.44953 4.13566 2.28131V1.36442C4.13566 1.00255 4.27941 0.655509 4.53529 0.39963C4.79117 0.143751 5.13822 0 5.50008 0C5.86195 0 6.209 0.143751 6.46488 0.39963C6.72075 0.655509 6.8645 1.00255 6.8645 1.36442V2.28131C7.33774 2.44953 7.77599 2.7034 8.15735 3.03023L8.95353 2.57054C9.26691 2.3896 9.63934 2.34057 9.98888 2.43423C10.3384 2.52789 10.6364 2.75657 10.8174 3.06995C10.9983 3.38334 11.0473 3.75577 10.9537 4.1053C10.86 4.45484 10.6313 4.75286 10.3179 4.93379L9.52371 5.39236C9.61656 5.8864 9.61656 6.39341 9.52371 6.88745L10.3179 7.34601C10.6313 7.52696 10.86 7.82498 10.9536 8.17451C11.0473 8.52404 10.9983 8.89646 10.8174 9.20985ZM5.50029 7.50432C5.77015 7.50432 6.03394 7.4243 6.25832 7.27437C6.4827 7.12445 6.65758 6.91136 6.76085 6.66204C6.86412 6.41273 6.89114 6.13839 6.83849 5.87371C6.78585 5.60904 6.6559 5.36593 6.46508 5.17511C6.27426 4.98429 6.03115 4.85434 5.76648 4.80169C5.5018 4.74905 5.22746 4.77607 4.97815 4.87934C4.72883 4.98261 4.51574 5.15749 4.36581 5.38187C4.21589 5.60625 4.13587 5.87004 4.13587 6.1399C4.13628 6.50164 4.28016 6.84845 4.53595 7.10423C4.79174 7.36002 5.13855 7.50391 5.50029 7.50432Z" fill="#595550"/>
</svg>
