<svg width="25" height="25" viewBox="0 0 25 25" fill="none" xmlns="http://www.w3.org/2000/svg">
<path d="M23.9904 23.991C23.8156 24.1659 23.5785 24.2641 23.3312 24.2641C23.084 24.2641 22.8469 24.1659 22.672 23.991L17.6355 18.9545C15.517 20.733 12.7938 21.625 10.0337 21.4447C7.27363 21.2643 4.68971 20.0253 2.8208 17.9862C0.9519 15.9471 -0.057698 13.2653 0.00254929 10.5C0.0627966 7.73462 1.18824 5.09929 3.14418 3.14352C5.10011 1.18775 7.73555 0.0625368 10.5009 0.00252906C13.2662 -0.0574787 15.948 0.952351 17.9869 2.82143C20.0259 4.69051 21.2646 7.27455 21.4447 10.0347C21.6249 12.7948 20.7326 15.5179 18.9539 17.6362L23.9904 22.6727C24.1653 22.8476 24.2635 23.0847 24.2635 23.3319C24.2635 23.5791 24.1653 23.8162 23.9904 23.991ZM10.7472 19.603C12.4987 19.603 14.2109 19.0836 15.6673 18.1105C17.1236 17.1374 18.2587 15.7543 18.929 14.136C19.5993 12.5178 19.7746 10.7372 19.4329 9.01932C19.0912 7.30143 18.2478 5.72346 17.0093 4.48493C15.7707 3.24641 14.1928 2.40296 12.4749 2.06126C10.757 1.71955 8.97636 1.89492 7.35815 2.56521C5.73994 3.23549 4.35683 4.37058 3.38373 5.82693C2.41062 7.28328 1.89123 8.99549 1.89123 10.747C1.89389 13.0949 2.82778 15.3459 4.48801 17.0062C6.14824 18.6664 8.39924 19.6003 10.7472 19.603Z" fill="#595550"/>
<path fill-rule="evenodd" clip-rule="evenodd" d="M6.56093 8.64551C6.56093 6.43637 8.35179 4.64551 10.5609 4.64551C12.7701 4.64551 14.5609 6.43637 14.5609 8.64551C14.5609 10.8546 12.7701 12.6455 10.5609 12.6455C8.35179 12.6455 6.56093 10.8546 6.56093 8.64551ZM13.6579 12.5711C12.8063 13.2439 11.7305 13.6455 10.5609 13.6455C9.39133 13.6455 8.31553 13.2439 7.46389 12.5711C6.12219 13.1685 4.98816 14.1412 4.21289 15.3711C5.66344 17.4046 8.04194 18.7305 10.7301 18.7305C13.2982 18.7305 15.5837 17.5204 17.0475 15.6394C17.0364 15.5942 17.0185 15.5507 16.9943 15.5102C16.2182 14.2145 15.0498 13.1908 13.6579 12.5711Z" fill="#595550"/>
</svg>
