<svg width="24" height="26" viewBox="0 0 24 26" fill="none" xmlns="http://www.w3.org/2000/svg">
<path d="M21.999 2H18.999V1C18.999 0.734784 18.8937 0.48043 18.7061 0.292893C18.5186 0.105357 18.2642 0 17.999 0C17.7338 0 17.4795 0.105357 17.2919 0.292893C17.1044 0.48043 16.999 0.734784 16.999 1V2H6.99902V1C6.99902 0.734784 6.89367 0.48043 6.70613 0.292893C6.51859 0.105357 6.26424 0 5.99902 0C5.73381 0 5.47945 0.105357 5.29192 0.292893C5.10438 0.48043 4.99902 0.734784 4.99902 1V2H1.99902C1.46875 2.00052 0.960347 2.21141 0.585388 2.58636C0.210429 2.96132 -0.000452701 3.46973 -0.000976562 4V24C-0.000452701 24.5303 0.210429 25.0387 0.585388 25.4136C0.960347 25.7886 1.46875 25.9995 1.99902 26H21.999C22.5293 25.9995 23.0377 25.7886 23.4127 25.4136C23.7876 25.0387 23.9985 24.5303 23.999 24V4C23.9985 3.46973 23.7876 2.96132 23.4127 2.58636C23.0377 2.21141 22.5293 2.00052 21.999 2ZM8.99976 21.5C8.60593 21.5011 8.2158 21.4241 7.85191 21.2735C7.48802 21.1229 7.15759 20.9016 6.8797 20.6226C6.69205 20.4351 6.58655 20.1808 6.58639 19.9156C6.58624 19.6504 6.69145 19.396 6.87888 19.2083C7.0663 19.0207 7.3206 18.9152 7.58581 18.915C7.85103 18.9149 8.10544 19.0201 8.29309 19.2075C8.40943 19.3237 8.55262 19.4094 8.70999 19.4571C8.86736 19.5047 9.03405 19.5128 9.1953 19.4807C9.35655 19.4485 9.50738 19.3771 9.63445 19.2728C9.76151 19.1684 9.86088 19.0343 9.92375 18.8824C9.98663 18.7305 10.0111 18.5654 9.99492 18.4017C9.97876 18.2381 9.92251 18.081 9.83114 17.9443C9.73977 17.8076 9.6161 17.6955 9.47108 17.618C9.32607 17.5405 9.16418 17.5 8.99976 17.5H8.99915C8.96802 17.5 8.93689 17.4982 8.90582 17.4952C8.89587 17.4943 8.88617 17.4928 8.87634 17.4916C8.85553 17.489 8.83478 17.486 8.81409 17.4821C8.80256 17.4799 8.79114 17.4775 8.77973 17.4749C8.76093 17.4707 8.74219 17.4658 8.72358 17.4605C8.71223 17.4572 8.70087 17.454 8.6897 17.4504C8.6709 17.4443 8.65229 17.4372 8.6338 17.4299C8.62372 17.426 8.61353 17.4224 8.60364 17.4181C8.5821 17.4088 8.56092 17.3983 8.5398 17.3874C8.5337 17.3842 8.52729 17.3815 8.52125 17.3782C8.49488 17.3637 8.469 17.348 8.44361 17.331C8.43506 17.3253 8.42713 17.3188 8.41877 17.3128C8.40412 17.3024 8.38929 17.2923 8.37507 17.2809C8.37324 17.2794 8.37165 17.2777 8.36982 17.2763C8.35474 17.264 8.34058 17.2507 8.32624 17.2376C8.3158 17.2281 8.30482 17.219 8.29486 17.2091C8.28522 17.1995 8.27649 17.1891 8.26721 17.1791C8.14621 17.0485 8.06206 16.8882 8.02338 16.7144C8.02271 16.7112 8.02161 16.7081 8.02094 16.705C8.01746 16.6881 8.01538 16.6708 8.01276 16.6536C8.01038 16.6381 8.00733 16.6227 8.00568 16.6071C8.00427 16.5942 8.00409 16.5811 8.00318 16.5681C8.00177 16.5476 8.00025 16.5271 8.00013 16.5066C8.00006 16.5044 7.99976 16.5022 7.99976 16.5C7.99976 16.4896 8.00098 16.4796 8.00134 16.4692C8.00195 16.4485 8.00256 16.4278 8.00446 16.4071C8.00574 16.3932 8.00793 16.3795 8.00983 16.3657C8.01233 16.3471 8.01477 16.3285 8.01831 16.31C8.02119 16.2952 8.02491 16.2807 8.02838 16.2661C8.03247 16.249 8.0365 16.232 8.04151 16.2151C8.04603 16.2 8.05134 16.1852 8.05652 16.1704C8.06208 16.1545 8.06751 16.1387 8.07386 16.123C8.08008 16.1077 8.08716 16.093 8.09412 16.078C8.10096 16.0634 8.10755 16.0488 8.11512 16.0345C8.1233 16.0189 8.13246 16.0039 8.14143 15.9888C8.14918 15.9759 8.15663 15.9628 8.16499 15.95C8.17561 15.934 8.18714 15.9188 8.19861 15.9034C8.20557 15.8941 8.21155 15.8844 8.21888 15.8752L8.91913 15H7.49976C7.23454 15 6.98019 14.8946 6.79265 14.7071C6.60511 14.5196 6.49976 14.2652 6.49976 14C6.49976 13.7348 6.60511 13.4804 6.79265 13.2929C6.98019 13.1054 7.23454 13 7.49976 13H10.9998C11.1881 13 11.3727 13.0532 11.5321 13.1535C11.6916 13.2538 11.8195 13.3971 11.9011 13.5668C11.9827 13.7366 12.0147 13.926 11.9934 14.1132C11.9721 14.3003 11.8983 14.4777 11.7806 14.6248L10.672 16.0106C11.2059 16.3689 11.6105 16.8893 11.8261 17.495C12.0417 18.1007 12.057 18.7597 11.8696 19.3748C11.6822 19.9899 11.3022 20.5284 10.7854 20.9111C10.2687 21.2937 9.64272 21.5002 8.99976 21.5ZM16.9998 20.5C16.9998 20.7652 16.8944 21.0196 16.7069 21.2071C16.5193 21.3946 16.265 21.5 15.9998 21.5C15.7345 21.5 15.4802 21.3946 15.2926 21.2071C15.1051 21.0196 14.9998 20.7652 14.9998 20.5V16L14.5997 16.3C14.3875 16.4592 14.1208 16.5275 13.8583 16.49C13.5957 16.4524 13.3588 16.3122 13.1997 16.1C13.0406 15.8878 12.9723 15.6211 13.0098 15.3585C13.0473 15.096 13.1876 14.8591 13.3998 14.7L15.3998 13.2C15.5484 13.0885 15.725 13.0207 15.91 13.004C16.0949 12.9874 16.2809 13.0225 16.447 13.1056C16.6131 13.1887 16.7528 13.3163 16.8504 13.4743C16.948 13.6323 16.9997 13.8143 16.9998 14V20.5ZM21.999 8H1.99902V4H4.99902V5C4.99902 5.26522 5.10438 5.51957 5.29192 5.70711C5.47945 5.89464 5.73381 6 5.99902 6C6.26424 6 6.51859 5.89464 6.70613 5.70711C6.89367 5.51957 6.99902 5.26522 6.99902 5V4H16.999V5C16.999 5.26522 17.1044 5.51957 17.2919 5.70711C17.4795 5.89464 17.7338 6 17.999 6C18.2642 6 18.5186 5.89464 18.7061 5.70711C18.8937 5.51957 18.999 5.26522 18.999 5V4H21.999V8Z" fill="#595550"/>
</svg>
