<svg width="15" height="19" viewBox="0 0 15 19" fill="none" xmlns="http://www.w3.org/2000/svg">
<path d="M2.01182 7.60139C2.92764 3.16816 9.03032 2.54636 11.8042 5.48353C13.4609 7.23736 13.4806 9.66592 12.3631 11.7138C11.8024 12.7373 11.0125 13.6368 10.0941 14.3525C9.09025 15.1321 7.9408 15.4419 6.84769 16.0436C6.38457 16.2964 5.8897 16.5941 5.3899 16.6703C4.18825 16.8647 3.89081 15.2587 3.55183 14.5396C3.04926 13.5502 2.56634 12.4189 2.23414 11.1589C1.83378 9.95895 1.76732 8.77508 2.01182 7.60139Z" fill="#F27808"/>
<path d="M11.7381 2.97225C11.4447 2.55542 10.9097 2.47069 10.4544 2.56704C10.6063 1.86717 10.2366 1.05731 9.45457 0.897763C8.93254 0.79797 8.48302 1.13252 8.23626 1.53492C8.19117 1.60928 8.15027 1.68839 8.11431 1.77105C7.73742 1.44702 7.21128 1.30623 6.71398 1.5303C6.23629 1.75273 6.07749 2.2862 6.12186 2.75675C6.18074 3.35362 6.53368 4.02559 7.11649 4.21691C7.58735 4.39387 9.74781 5.18761 10.3577 5.077C10.5551 5.08542 10.7474 5.05623 10.9259 4.99551C11.7429 4.73918 12.2627 3.73765 11.7381 2.97225Z" fill="#4A8A51"/>
<path d="M13.6481 4.3884C13.4588 3.91477 12.9579 3.70813 12.4928 3.69616C12.802 3.05057 12.6293 2.17687 11.9053 1.84009C11.4204 1.62181 10.9059 1.84291 10.573 2.1771C10.512 2.23897 10.4539 2.30643 10.3999 2.3785C10.108 1.97577 9.62863 1.71665 9.09314 1.81919C8.5771 1.92467 8.2995 2.40678 8.23409 2.87486C8.15364 3.46919 8.34194 4.20485 8.86478 4.52628C9.28201 4.80775 11.2006 6.08153 11.8195 6.11551C12.0096 6.16954 12.2034 6.18578 12.3911 6.16816C13.245 6.10846 13.9818 5.25482 13.6481 4.3884Z" fill="#4A8A51"/>
<path fill-rule="evenodd" clip-rule="evenodd" d="M2.70693 5.71605C2.67111 5.62344 2.56735 5.57705 2.4747 5.61239C2.38175 5.64785 2.33518 5.75215 2.37068 5.84535L2.53898 5.78114C2.37068 5.84535 2.37072 5.84544 2.37075 5.84554L2.37084 5.84575L2.37102 5.84623L2.37147 5.84739L2.37272 5.85055C2.37371 5.85302 2.37502 5.85621 2.37666 5.8601C2.37995 5.86786 2.38457 5.87839 2.39067 5.89138C2.40287 5.91737 2.42099 5.95328 2.44615 5.9968C2.49647 6.08382 2.57507 6.20149 2.69088 6.33104C2.92328 6.591 3.30291 6.89579 3.89688 7.09725C3.99116 7.12923 4.09336 7.07858 4.12515 6.98413C4.15693 6.88968 4.10627 6.78719 4.01199 6.75522C3.48138 6.57525 3.15329 6.30749 2.9591 6.09027C2.86162 5.98122 2.79721 5.88413 2.75784 5.81605C2.73817 5.78202 2.72478 5.75529 2.71668 5.73802C2.71262 5.72939 2.7099 5.72314 2.70837 5.71953L2.70697 5.71614M2.70693 5.71605C2.70693 5.71605 2.70693 5.71605 2.70693 5.71605L2.70693 5.71605Z" fill="#BE630E"/>
<path fill-rule="evenodd" clip-rule="evenodd" d="M1.70072 7.86653C1.78975 7.82213 1.89793 7.85851 1.94235 7.94778L1.78115 8.02818C1.94235 7.94778 1.94231 7.94771 1.94227 7.94764L1.94221 7.94751L1.94211 7.94731L1.94202 7.94712C1.942 7.9471 1.94208 7.94726 1.94226 7.9476L1.94449 7.95182C1.94677 7.95604 1.95061 7.96301 1.95607 7.97237C1.96701 7.99111 1.98439 8.01934 2.00868 8.05425C2.05732 8.1242 2.13307 8.22018 2.23931 8.32036C2.45097 8.51993 2.78335 8.73622 3.26879 8.79876C3.36748 8.81148 3.43731 8.90195 3.42475 9.00085C3.41218 9.09974 3.32199 9.1696 3.2233 9.15688C2.64836 9.08281 2.2483 8.82428 1.9926 8.58318C1.86517 8.46302 1.77351 8.3472 1.71317 8.26044C1.68296 8.217 1.66046 8.18064 1.64514 8.15438C1.63747 8.14124 1.63158 8.13061 1.62741 8.12286C1.62532 8.11898 1.62366 8.11582 1.62243 8.11342L1.62088 8.11041L1.62034 8.10934L1.62013 8.10891L1.62004 8.10873C1.61999 8.10865 1.61995 8.10857 1.78115 8.02818L1.61995 8.10857C1.57554 8.01929 1.6117 7.91093 1.70072 7.86653Z" fill="#BE630E"/>
<path fill-rule="evenodd" clip-rule="evenodd" d="M12.6701 11.6113C12.7314 11.6899 12.7177 11.8034 12.6393 11.8648L12.5283 11.7225C12.6393 11.8648 12.6393 11.8649 12.6392 11.865L12.639 11.8651L12.6385 11.8655L12.6372 11.8665L12.6332 11.8695C12.63 11.8719 12.6256 11.8752 12.62 11.8793C12.6089 11.8873 12.5931 11.8984 12.5729 11.9118C12.5324 11.9387 12.4739 11.975 12.3985 12.0152C12.2478 12.0956 12.029 12.1922 11.7522 12.2601C11.1957 12.3967 10.4118 12.4154 9.48781 11.9672C9.39821 11.9238 9.36063 11.8158 9.40386 11.726C9.4471 11.6362 9.55478 11.5987 9.64438 11.6421C10.4857 12.0502 11.1829 12.0279 11.6661 11.9093C11.9092 11.8496 12.0999 11.7651 12.2289 11.6963C12.2933 11.662 12.342 11.6316 12.3739 11.6105C12.3898 11.5999 12.4015 11.5917 12.4087 11.5864C12.4124 11.5838 12.4149 11.5819 12.4163 11.5808L12.4174 11.58L12.4173 11.5801C12.4956 11.5188 12.6088 11.5328 12.6701 11.6113Z" fill="#BE630E"/>
<path fill-rule="evenodd" clip-rule="evenodd" d="M10.741 13.6603C10.8255 13.6083 10.9363 13.6347 10.9886 13.7192C11.041 13.804 11.0149 13.9151 10.9303 13.9675L10.8395 13.8205C10.9303 13.9675 10.9302 13.9676 10.9302 13.9676L10.9294 13.9681L10.9281 13.9689L10.924 13.9713C10.9207 13.9733 10.9162 13.976 10.9105 13.9792C10.8991 13.9856 10.8831 13.9945 10.8625 14.0051C10.8214 14.0264 10.7621 14.0549 10.6861 14.0858C10.5342 14.1475 10.3149 14.2193 10.0398 14.2623C9.48783 14.3487 8.71683 14.3184 7.825 13.8691C7.73608 13.8243 7.70018 13.7158 7.7448 13.6269C7.78943 13.5379 7.89769 13.5021 7.98661 13.5469C8.8046 13.959 9.49843 13.9818 9.98378 13.9058C10.2275 13.8677 10.42 13.8044 10.5502 13.7515C10.6153 13.725 10.6646 13.7012 10.6969 13.6845C10.713 13.6762 10.7248 13.6697 10.7322 13.6655C10.7358 13.6634 10.7384 13.6619 10.7398 13.6611L10.741 13.6603Z" fill="#BE630E"/>
</svg>
