<svg width="45" height="51" viewBox="0 0 45 51" fill="none" xmlns="http://www.w3.org/2000/svg">
<path d="M40.936 17.4375H32.6392V10.9844C32.6392 8.29491 31.5708 5.71561 29.669 3.81387C27.7673 1.91213 25.188 0.84375 22.4985 0.84375C19.8091 0.84375 17.2298 1.91213 15.328 3.81387C13.4263 5.71561 12.3579 8.29491 12.3579 10.9844V17.4375H4.06104C3.08339 17.4386 2.14611 17.8275 1.45481 18.5188C0.763516 19.2101 0.374653 20.1474 0.373535 21.125V46.9375C0.374653 47.9151 0.763516 48.8524 1.45481 49.5437C2.14611 50.235 3.08339 50.6239 4.06104 50.625H40.936C41.9137 50.6239 42.851 50.235 43.5423 49.5437C44.2336 48.8524 44.6224 47.9151 44.6235 46.9375V21.125C44.6224 20.1474 44.2336 19.2101 43.5423 18.5188C42.851 17.8275 41.9137 17.4386 40.936 17.4375ZM24.3423 37.449V41.4062C24.3423 41.8952 24.148 42.3642 23.8023 42.71C23.4565 43.0557 22.9875 43.25 22.4985 43.25C22.0095 43.25 21.5406 43.0557 21.1948 42.71C20.849 42.3642 20.6548 41.8952 20.6548 41.4062V37.449C19.1693 37.0061 17.8929 36.0433 17.059 34.7367C16.225 33.4301 15.8892 31.867 16.113 30.3332C16.3368 28.7994 17.1052 27.3974 18.2777 26.3835C19.4502 25.3696 20.9485 24.8117 22.4985 24.8117C24.0486 24.8117 25.5469 25.3696 26.7194 26.3835C27.8919 27.3974 28.6603 28.7994 28.8841 30.3332C29.1078 31.867 28.772 33.4301 27.9381 34.7367C27.1041 36.0433 25.8277 37.0061 24.3423 37.449ZM28.9517 17.4375H16.0454V10.9844C16.0454 9.2729 16.7253 7.63152 17.9355 6.42133C19.1457 5.21113 20.7871 4.53125 22.4985 4.53125C24.21 4.53125 25.8514 5.21113 27.0616 6.42133C28.2718 7.63152 28.9517 9.2729 28.9517 10.9844V17.4375Z" fill="#A4A4A4"/>
</svg>
