<svg width="51" height="50" viewBox="0 0 51 50" fill="none" xmlns="http://www.w3.org/2000/svg">
<circle cx="25.5" cy="25" r="25" fill="#67986C"/>
<path d="M36.5 24H26.5V14C26.5 13.7348 26.3946 13.4804 26.2071 13.2929C26.0196 13.1054 25.7652 13 25.5 13C25.2348 13 24.9804 13.1054 24.7929 13.2929C24.6054 13.4804 24.5 13.7348 24.5 14V24H14.5C14.2348 24 13.9804 24.1054 13.7929 24.2929C13.6054 24.4804 13.5 24.7348 13.5 25C13.5 25.2652 13.6054 25.5196 13.7929 25.7071C13.9804 25.8946 14.2348 26 14.5 26H24.5V36C24.5 36.2652 24.6054 36.5196 24.7929 36.7071C24.9804 36.8946 25.2348 37 25.5 37C25.7652 37 26.0196 36.8946 26.2071 36.7071C26.3946 36.5196 26.5 36.2652 26.5 36V26H36.5C36.7652 26 37.0196 25.8946 37.2071 25.7071C37.3946 25.5196 37.5 25.2652 37.5 25C37.5 24.7348 37.3946 24.4804 37.2071 24.2929C37.0196 24.1054 36.7652 24 36.5 24Z" fill="#FFFDFA"/>
</svg>
