<svg xmlns="http://www.w3.org/2000/svg" width="135" height="134" fill="none"><circle cx="67.5" cy="67" r="67" fill="#F1E5D2"/><rect width="15.852" height="48.441" fill="#595550" rx="7.926" transform="matrix(.76604 .64279 -.64902 .76077 91.218 33.801)"/><rect width="15.852" height="52.015" fill="#595550" rx="7.926" transform="matrix(.76604 .64279 -.64902 .76077 72.722 27.296)"/><path fill="#F1E5D2" d="M42.685 65.759h38.463v28.537H42.685z"/><path fill="#595550" d="M61.917 50.87a27.916 27.916 0 1 0 27.916 27.917A27.949 27.949 0 0 0 61.917 50.87Zm9.663 19.327a3.221 3.221 0 1 1 0 6.443 3.221 3.221 0 0 1 0-6.443Zm-19.327 0a3.221 3.221 0 1 1 0 6.443 3.221 3.221 0 0 1 0-6.443Zm22.684 16.107a15.037 15.037 0 0 1-26.04 0 2.147 2.147 0 0 1 3.717-2.15 10.741 10.741 0 0 0 18.605 0 2.147 2.147 0 1 1 3.718 2.15Z"/></svg>