<svg width="30" height="36" viewBox="0 0 30 36" fill="none" xmlns="http://www.w3.org/2000/svg">
<path d="M22.8401 4.03216C21.7432 3.10877 20.2142 3.24893 19.0305 3.82317C18.9598 1.82819 17.3794 -0.104158 15.1194 0.00436602C13.6155 0.0949061 12.6137 1.30852 12.2164 2.56553C12.1444 2.79747 12.0871 3.03932 12.046 3.28737C10.7845 2.6722 9.24074 2.65483 8.03068 3.60302C6.87334 4.53323 6.80904 6.08357 7.25912 7.32385C7.83714 8.89528 9.27546 10.4667 11.0102 10.5814C12.4273 10.7346 18.9167 11.3882 20.5151 10.6689C21.0636 10.5554 21.5715 10.3439 22.0197 10.0568C24.0855 8.80102 24.8153 5.73754 22.8401 4.03216Z" fill="#4A8A51"/>
<path d="M14.9478 35.5C19.0034 35.5 22.6214 33.1162 25.2045 29.8072C27.7891 26.496 29.3955 22.1898 29.3955 18.2C29.3955 14.1799 27.7625 11.227 25.1042 9.29597C22.4671 7.38039 18.8648 6.5 14.9478 6.5C11.0308 6.5 7.4284 7.38039 4.79135 9.29597C2.13306 11.227 0.5 14.1799 0.5 18.2C0.5 22.1898 2.10641 26.496 4.69107 29.8072C7.2741 33.1162 10.8922 35.5 14.9478 35.5Z" fill="#FFFDFA" stroke="#4A8A51"/>
</svg>
