<svg width="31" height="30" viewBox="0 0 31 30" fill="none" xmlns="http://www.w3.org/2000/svg">
<path d="M15.625 7C14.018 7 12.4471 7.47652 11.111 8.36931C9.77485 9.2621 8.73344 10.531 8.11848 12.0157C7.50352 13.5003 7.34262 15.134 7.65612 16.7101C7.96963 18.2862 8.74346 19.7339 9.87976 20.8702C11.0161 22.0065 12.4638 22.7804 14.0399 23.0939C15.616 23.4074 17.2497 23.2465 18.7343 22.6315C20.219 22.0166 21.4879 20.9752 22.3807 19.639C23.2735 18.3029 23.75 16.732 23.75 15.125C23.7475 12.9709 22.8907 10.9057 21.3675 9.38251C19.8443 7.85931 17.7791 7.00249 15.625 7V7ZM19.4946 13.7023L14.9109 18.0773C14.7943 18.1882 14.6396 18.25 14.4788 18.25C14.3179 18.25 14.1632 18.1882 14.0466 18.0773L11.7554 15.8898C11.6357 15.7751 11.5664 15.6176 11.5627 15.4519C11.559 15.2862 11.6213 15.1258 11.7358 15.0059C11.8503 14.8861 12.0077 14.8166 12.1734 14.8127C12.3392 14.8088 12.4996 14.8709 12.6196 14.9852L14.4788 16.7607L18.6304 12.7977C18.7504 12.6834 18.9109 12.6213 19.0766 12.6252C19.2423 12.6291 19.3997 12.6986 19.5142 12.8184C19.6287 12.9383 19.691 13.0987 19.6873 13.2644C19.6836 13.4301 19.6143 13.5876 19.4946 13.7023V13.7023Z" fill="#A4A4A4"/>
</svg>
