<svg width="72" height="32" viewBox="0 0 72 32" fill="none" xmlns="http://www.w3.org/2000/svg">
<path d="M10.2526 21.6644L2.25259 12.6644C2.07639 12.4662 1.98615 12.2061 2.00173 11.9413C2.01731 11.6765 2.13742 11.4288 2.33566 11.2526C2.53389 11.0764 2.794 10.9861 3.05876 11.0017C3.32353 11.0173 3.57126 11.1374 3.74746 11.3357L11 19.4948L18.2526 11.3357C18.3398 11.2375 18.4456 11.1575 18.5637 11.1002C18.6819 11.0429 18.8102 11.0094 18.9413 11.0017C19.0724 10.994 19.2037 11.0122 19.3278 11.0552C19.4519 11.0983 19.5662 11.1653 19.6644 11.2526C19.7625 11.3398 19.8426 11.4456 19.8999 11.5637C19.9571 11.6819 19.9906 11.8102 19.9983 11.9413C20.006 12.0724 19.9879 12.2037 19.9448 12.3278C19.9018 12.4519 19.8347 12.5662 19.7475 12.6644L11.7475 21.6644C11.6536 21.7699 11.5385 21.8544 11.4097 21.9123C11.2809 21.9701 11.1412 22 11 22C10.8588 22 10.7192 21.9701 10.5904 21.9123C10.4615 21.8544 10.3464 21.7699 10.2526 21.6644V21.6644Z" fill="#595550"/>
</svg>
