<svg width="10" height="10" viewBox="0 0 10 10" fill="none" xmlns="http://www.w3.org/2000/svg">
<path d="M0.0770911 4.38511C0.417959 3.9284 0.872616 3.56902 1.39572 3.34281C1.10935 3.08137 0.908725 2.73947 0.820163 2.36198C0.731601 1.98448 0.759244 1.58903 0.899464 1.22753C1.03968 0.866025 1.28593 0.555355 1.60589 0.33629C1.92584 0.117225 2.30456 0 2.69233 0C3.08011 0 3.45882 0.117225 3.77878 0.33629C4.09873 0.555355 4.34498 0.866025 4.4852 1.22753C4.62542 1.58903 4.65306 1.98448 4.5645 2.36198C4.47594 2.73947 4.27531 3.08137 3.98894 3.34281C4.36657 3.50568 4.70969 3.73904 4.99992 4.03039C5.29014 3.73903 5.63326 3.50567 6.0109 3.34281C5.72453 3.08137 5.5239 2.73947 5.43534 2.36198C5.34678 1.98448 5.37442 1.58903 5.51464 1.22753C5.65486 0.866025 5.90111 0.555355 6.22106 0.33629C6.54102 0.117225 6.91974 0 7.30751 0C7.69529 0 8.074 0.117225 8.39396 0.33629C8.71391 0.555355 8.96016 0.866025 9.10038 1.22753C9.2406 1.58903 9.26824 1.98448 9.17968 2.36198C9.09112 2.73947 8.89049 3.08137 8.60412 3.34281C9.12718 3.56901 9.5818 3.92835 9.92266 4.38502C9.95306 4.42539 9.9752 4.47136 9.98782 4.5203C10.0004 4.56923 10.0033 4.62017 9.99621 4.67021C9.98912 4.72025 9.97225 4.7684 9.94654 4.81191C9.92083 4.85542 9.8868 4.89344 9.8464 4.92379C9.80599 4.95414 9.75999 4.97623 9.71104 4.9888C9.66208 5.00136 9.61113 5.00416 9.5611 4.99702C9.51107 4.98989 9.46293 4.97296 9.41944 4.94721C9.37596 4.92146 9.33797 4.88739 9.30766 4.84695C9.07476 4.53648 8.77276 4.28449 8.42558 4.11093C8.07841 3.93738 7.6956 3.84703 7.30745 3.84704C6.91931 3.84705 6.5365 3.93742 6.18933 4.11099C5.84217 4.28455 5.54018 4.53656 5.30729 4.84704L5.30527 4.84941C5.29749 4.85957 5.2892 4.86932 5.28043 4.87864C5.27757 4.88171 5.27464 4.88463 5.27168 4.88759C5.26494 4.89432 5.25792 4.90082 5.2506 4.90711C5.24635 4.91079 5.24208 4.91441 5.23771 4.91787C5.23541 4.91969 5.23335 4.9217 5.231 4.92347C5.22661 4.92675 5.22198 4.92949 5.2175 4.93256C5.21262 4.93593 5.20781 4.93938 5.20278 4.94249C5.19492 4.94739 5.18684 4.95174 5.17875 4.956C5.17471 4.95812 5.17081 4.96049 5.16673 4.96247C5.14184 4.97444 5.11572 4.98369 5.08884 4.99003C5.08497 4.99095 5.08105 4.99155 5.07713 4.99234C5.06778 4.99426 5.05842 4.99597 5.04898 4.99717C5.04368 4.99785 5.03837 4.99827 5.03307 4.99874C5.02511 4.99942 5.01717 4.9999 5.00922 5.00009C5.00598 5.00017 5.00274 5.00064 4.9995 5.00064C4.99729 5.00064 4.99513 5.00017 4.99295 5.00013C4.97637 4.9999 4.95983 4.9986 4.94342 4.99624C4.93889 4.99557 4.93443 4.99449 4.92992 4.99366C4.91634 4.99115 4.90291 4.98791 4.88969 4.98395C4.88516 4.98259 4.88058 4.98151 4.87607 4.97998C4.86028 4.97451 4.84485 4.96803 4.8299 4.96056C4.82541 4.95835 4.82098 4.95606 4.81654 4.95364C4.80103 4.94532 4.78612 4.93593 4.77192 4.92553L4.7688 4.92356C4.76318 4.91936 4.75814 4.91471 4.75283 4.91028C4.74976 4.90767 4.74657 4.90524 4.74356 4.90254C4.73558 4.89542 4.72812 4.88793 4.72084 4.88029L4.71697 4.87632C4.70645 4.86507 4.69662 4.85319 4.68753 4.84075C4.45409 4.53153 4.15196 4.28079 3.80499 4.10834C3.45802 3.93589 3.07572 3.84643 2.68825 3.84704C2.30078 3.84765 1.91876 3.93831 1.57234 4.11185C1.22592 4.2854 0.924579 4.53709 0.692111 4.84704C0.63085 4.92859 0.5397 4.98247 0.438712 4.99682C0.337725 5.01117 0.235173 4.98482 0.153616 4.92356C0.0720593 4.86231 0.0181786 4.77116 0.00382722 4.67019C-0.0105242 4.56921 0.0158303 4.46666 0.0770911 4.38511ZM8.60412 8.34217C8.89049 8.08073 9.09112 7.73883 9.17968 7.36133C9.26824 6.98384 9.2406 6.58839 9.10038 6.22689C8.96016 5.86538 8.71391 5.55471 8.39396 5.33565C8.074 5.11658 7.69529 4.99936 7.30751 4.99936C6.91974 4.99936 6.54102 5.11658 6.22106 5.33565C5.90111 5.55471 5.65486 5.86538 5.51464 6.22689C5.37442 6.58839 5.34678 6.98384 5.43534 7.36133C5.5239 7.73883 5.72453 8.08073 6.0109 8.34217C5.63326 8.50502 5.29014 8.73838 4.99992 9.02975C4.70969 8.73839 4.36657 8.50504 3.98894 8.34217C4.27531 8.08073 4.47594 7.73883 4.5645 7.36133C4.65306 6.98384 4.62542 6.58839 4.4852 6.22689C4.34498 5.86538 4.09873 5.55471 3.77878 5.33565C3.45882 5.11658 3.08011 4.99936 2.69233 4.99936C2.30456 4.99936 1.92584 5.11658 1.60589 5.33565C1.28593 5.55471 1.03968 5.86538 0.899464 6.22689C0.759244 6.58839 0.731601 6.98384 0.820163 7.36133C0.908725 7.73883 1.10935 8.08073 1.39572 8.34217C0.872616 8.56837 0.417959 8.92775 0.0770911 9.38447C0.0341802 9.44159 0.00803076 9.50954 0.00157518 9.58069C-0.0048804 9.65184 0.00861279 9.72338 0.040542 9.78729C0.0724713 9.8512 0.121575 9.90496 0.182345 9.94253C0.243116 9.9801 0.313152 10 0.3846 10L4.99847 9.9999L4.99978 10L9.61517 9.9999C9.68662 9.99991 9.75666 9.98001 9.81743 9.94244C9.8782 9.90487 9.9273 9.85111 9.95923 9.7872C9.99116 9.72328 10.0047 9.65174 9.99819 9.58059C9.99173 9.50944 9.96558 9.44149 9.92266 9.38437C9.5818 8.92771 9.12718 8.56836 8.60412 8.34217Z" fill="#A4A4A4"/>
</svg>
