<svg width="31" height="23" viewBox="0 0 31 23" fill="none" xmlns="http://www.w3.org/2000/svg">
<path d="M30.9999 14.0003C30.9999 14.1316 30.974 14.2617 30.9238 14.383C30.8735 14.5043 30.7999 14.6145 30.707 14.7074C30.6141 14.8003 30.5039 14.8739 30.3826 14.9242C30.2613 14.9744 30.1312 15.0003 29.9999 15.0003H27.9999V17.0003C27.9999 17.2655 27.8945 17.5199 27.707 17.7074C27.5195 17.8949 27.2651 18.0003 26.9999 18.0003C26.7347 18.0003 26.4803 17.8949 26.2928 17.7074C26.1052 17.5199 25.9999 17.2655 25.9999 17.0003V15.0003H23.9999C23.7347 15.0003 23.4803 14.8949 23.2928 14.7074C23.1052 14.5199 22.9999 14.2655 22.9999 14.0003C22.9999 13.7351 23.1052 13.4807 23.2928 13.2932C23.4803 13.1056 23.7347 13.0003 23.9999 13.0003H25.9999V11.0003C25.9999 10.7351 26.1052 10.4807 26.2928 10.2932C26.4803 10.1057 26.7347 10.0003 26.9999 10.0003C27.2651 10.0003 27.5195 10.1057 27.707 10.2932C27.8945 10.4807 27.9999 10.7351 27.9999 11.0003V13.0003H29.9999C30.1312 13.0003 30.2613 13.0262 30.3826 13.0764C30.5039 13.1267 30.6141 13.2003 30.707 13.2932C30.7999 13.386 30.8735 13.4963 30.9238 13.6176C30.974 13.7389 30.9999 13.869 30.9999 14.0003ZM17.0177 16.6951C18.58 15.7147 19.7811 14.2529 20.4396 12.5301C21.0982 10.8073 21.1785 8.91699 20.6684 7.14453C20.1584 5.37207 19.0856 3.8136 17.6121 2.70432C16.1386 1.59503 14.3443 0.995117 12.4999 0.995117C10.6555 0.995117 8.86116 1.59503 7.38765 2.70432C5.91414 3.8136 4.84141 5.37207 4.33137 7.14453C3.82132 8.91699 3.90163 10.8073 4.56018 12.5301C5.21872 14.2529 6.41976 15.7147 7.98205 16.6951C5.26179 17.5538 2.84311 19.171 1.01021 21.3568C0.887732 21.5026 0.809425 21.6803 0.784491 21.8691C0.759557 22.0578 0.789032 22.2498 0.869452 22.4224C0.949872 22.595 1.07789 22.741 1.23846 22.8434C1.39904 22.9457 1.58549 23 1.77589 23L23.224 23.0001C23.4144 23.0001 23.6008 22.9458 23.7614 22.8434C23.922 22.7411 24.05 22.5951 24.1304 22.4225C24.2108 22.2499 24.2403 22.0579 24.2154 21.8691C24.1904 21.6804 24.1121 21.5027 23.9896 21.3569C22.1567 19.1711 19.738 17.5538 17.0177 16.6951Z" fill="#595550"/>
</svg>
