<svg width="15" height="19" viewBox="0 0 15 19" fill="none" xmlns="http://www.w3.org/2000/svg">
<path d="M2.04844 7.75813C2.96426 3.32489 9.06694 2.70309 11.8408 5.64027C13.4975 7.3941 13.5173 9.82266 12.3997 11.8705C11.839 12.894 11.0491 13.7935 10.1307 14.5093C9.12687 15.2888 7.97742 15.5986 6.88431 16.2003C6.42119 16.4531 5.92632 16.7509 5.42652 16.827C4.22487 17.0215 3.92743 15.4154 3.58845 14.6963C3.08588 13.7069 2.60297 12.5756 2.27076 11.3156C1.8704 10.1157 1.80394 8.93182 2.04844 7.75813Z" fill="#F27808"/>
<path d="M11.7747 3.12947C11.4813 2.71265 10.9463 2.62792 10.491 2.72427C10.6429 2.0244 10.2733 1.21453 9.49119 1.05499C8.96916 0.955196 8.51964 1.28975 8.27288 1.69215C8.2278 1.76651 8.18689 1.84561 8.15093 1.92827C7.77404 1.60425 7.2479 1.46346 6.7506 1.68753C6.27292 1.90996 6.11411 2.44343 6.15848 2.91398C6.21736 3.51085 6.5703 4.18281 7.15311 4.37413C7.62397 4.55109 9.78443 5.34484 10.3943 5.23423C10.5918 5.24264 10.784 5.21345 10.9626 5.15273C11.7795 4.8964 12.2993 3.89488 11.7747 3.12947Z" fill="#4A8A51"/>
<path d="M13.6847 4.54562C13.4954 4.07199 12.9945 3.86536 12.5294 3.85339C12.8386 3.20779 12.6659 2.3341 11.9419 1.99732C11.4571 1.77904 10.9425 2.00014 10.6096 2.33433C10.5486 2.3962 10.4906 2.46366 10.4365 2.53573C10.1446 2.133 9.66526 1.87388 9.12976 1.97641C8.61372 2.08189 8.33612 2.56401 8.27071 3.03209C8.19026 3.62642 8.37856 4.36208 8.9014 4.68351C9.31864 4.96498 11.2373 6.23875 11.8561 6.27273C12.0463 6.32677 12.24 6.34301 12.4277 6.32539C13.2817 6.26569 14.0185 5.41204 13.6847 4.54562Z" fill="#4A8A51"/>
<path fill-rule="evenodd" clip-rule="evenodd" d="M2.74355 5.87278C2.70773 5.78018 2.60397 5.73379 2.51132 5.76913C2.41837 5.80459 2.3718 5.90889 2.4073 6.00209L2.5756 5.93788C2.4073 6.00209 2.40734 6.00218 2.40738 6.00228L2.40746 6.00249L2.40764 6.00297L2.40809 6.00413L2.40934 6.00729C2.41034 6.00976 2.41164 6.01295 2.41329 6.01683C2.41657 6.0246 2.42119 6.03512 2.42729 6.04812C2.43949 6.07411 2.45761 6.11002 2.48278 6.15354C2.53309 6.24056 2.61169 6.35823 2.7275 6.48777C2.9599 6.74774 3.33953 7.05252 3.9335 7.25399C4.02778 7.28596 4.12998 7.23532 4.16177 7.14087C4.19355 7.04642 4.14289 6.94393 4.04861 6.91195C3.51801 6.73198 3.18991 6.46423 2.99572 6.247C2.89824 6.13796 2.83383 6.04087 2.79447 5.97279C2.77479 5.93876 2.7614 5.91203 2.7533 5.89476C2.74925 5.88613 2.74652 5.87988 2.74499 5.87627L2.74359 5.87288M2.74355 5.87279C2.74355 5.87279 2.74355 5.87279 2.74355 5.87278L2.74355 5.87279Z" fill="#BE630E"/>
<path fill-rule="evenodd" clip-rule="evenodd" d="M1.73735 8.02376C1.82637 7.97936 1.93455 8.01574 1.97897 8.10501L1.81777 8.1854C1.97897 8.10501 1.97893 8.10494 1.97889 8.10486L1.97883 8.10474L1.97873 8.10454L1.97864 8.10435C1.97862 8.10432 1.9787 8.10448 1.97888 8.10483L1.98112 8.10905C1.98339 8.11327 1.98723 8.12024 1.99269 8.1296C2.00363 8.14834 2.02102 8.17656 2.0453 8.21148C2.09395 8.28143 2.16969 8.37741 2.27593 8.47759C2.48759 8.67715 2.81997 8.89345 3.30541 8.95599C3.4041 8.96871 3.47393 9.05918 3.46137 9.15807C3.4488 9.25696 3.35861 9.32682 3.25992 9.31411C2.68498 9.24003 2.28492 8.9815 2.02922 8.7404C1.90179 8.62025 1.81013 8.50443 1.7498 8.41767C1.71958 8.37423 1.69708 8.33787 1.68176 8.31161C1.67409 8.29847 1.6682 8.28784 1.66403 8.28008C1.66194 8.27621 1.66029 8.27305 1.65905 8.27065L1.6575 8.26763L1.65696 8.26656L1.65675 8.26614L1.65666 8.26596C1.65662 8.26587 1.65658 8.26579 1.81777 8.1854L1.65658 8.26579C1.61216 8.17652 1.64832 8.06816 1.73735 8.02376Z" fill="#BE630E"/>
<path fill-rule="evenodd" clip-rule="evenodd" d="M12.7067 11.7681C12.768 11.8467 12.7543 11.9601 12.676 12.0216L12.5649 11.8792C12.676 12.0216 12.6759 12.0216 12.6758 12.0217L12.6756 12.0219L12.6751 12.0222L12.6738 12.0232L12.6698 12.0263C12.6666 12.0287 12.6622 12.032 12.6567 12.036C12.6455 12.044 12.6298 12.0551 12.6095 12.0686C12.569 12.0954 12.5105 12.1317 12.4351 12.1719C12.2844 12.2523 12.0657 12.3489 11.7888 12.4169C11.2323 12.5534 10.4484 12.5722 9.52443 12.124C9.43483 12.0805 9.39725 11.9725 9.44048 11.8827C9.48372 11.7929 9.5914 11.7554 9.681 11.7989C10.5223 12.207 11.2195 12.1846 11.7028 12.066C11.9458 12.0064 12.1366 11.9219 12.2655 11.8531C12.3299 11.8187 12.3786 11.7884 12.4105 11.7672C12.4264 11.7567 12.4381 11.7484 12.4454 11.7432C12.449 11.7405 12.4515 11.7386 12.453 11.7376L12.4541 11.7367L12.4539 11.7368C12.5323 11.6755 12.6454 11.6895 12.7067 11.7681Z" fill="#BE630E"/>
<path fill-rule="evenodd" clip-rule="evenodd" d="M10.7777 13.8175C10.8622 13.7656 10.9729 13.7919 11.0252 13.8765C11.0776 13.9612 11.0515 14.0724 10.967 14.1247L10.8761 13.9778C10.967 14.1247 10.9669 14.1248 10.9668 14.1249L10.9661 14.1253L10.9647 14.1261L10.9606 14.1286C10.9573 14.1305 10.9528 14.1332 10.9471 14.1364C10.9358 14.1429 10.9197 14.1517 10.8991 14.1624C10.858 14.1836 10.7987 14.2121 10.7227 14.243C10.5708 14.3048 10.3515 14.3765 10.0765 14.4195C9.52445 14.5059 8.75346 14.4756 7.86162 14.0263C7.77271 13.9815 7.7368 13.8731 7.78142 13.7841C7.82605 13.6951 7.93431 13.6593 8.02323 13.7041C8.84122 14.1162 9.53505 14.139 10.0204 14.0631C10.2641 14.0249 10.4566 13.9617 10.5868 13.9087C10.6519 13.8823 10.7013 13.8584 10.7335 13.8418C10.7496 13.8334 10.7614 13.8269 10.7688 13.8227C10.7725 13.8206 10.775 13.8191 10.7764 13.8183L10.7777 13.8175Z" fill="#BE630E"/>
</svg>
