<svg width="55" height="55" viewBox="0 0 55 55" fill="none" xmlns="http://www.w3.org/2000/svg">
<rect width="55" height="55" rx="12" fill="#67986C"/>
<path d="M33.559 26.5673C33.559 27.9501 33.149 29.3019 32.3807 30.4516C31.6125 31.6014 30.5206 32.4975 29.243 33.0267C27.9655 33.5558 26.5597 33.6943 25.2035 33.4245C23.8473 33.1548 22.6015 32.4889 21.6237 31.5111C20.6459 30.5333 19.9801 29.2875 19.7103 27.9313C19.4405 26.5751 19.579 25.1693 20.1081 23.8918C20.6373 22.6143 21.5334 21.5223 22.6832 20.7541C23.8329 19.9859 25.1847 19.5758 26.5675 19.5758C28.4211 19.5779 30.1982 20.3152 31.5089 21.6259C32.8196 22.9366 33.5569 24.7137 33.559 26.5673ZM39.8108 39.8113C39.6359 39.9862 39.3988 40.0844 39.1515 40.0844C38.9043 40.0844 38.6672 39.9862 38.4923 39.8113L33.4558 34.7748C31.3374 36.5533 28.6142 37.4454 25.8541 37.265C23.0939 37.0846 20.51 35.8457 18.6411 33.8066C16.7722 31.7675 15.7626 29.0856 15.8229 26.3203C15.8831 23.5549 17.0085 20.9196 18.9645 18.9638C20.9204 17.0081 23.5559 15.8828 26.3212 15.8228C29.0865 15.7628 31.7683 16.7727 33.8072 18.6417C35.8462 20.5108 37.0849 23.0949 37.265 25.855C37.4452 28.6151 36.5529 31.3382 34.7742 33.4565L39.8108 38.493C39.9856 38.6679 40.0838 38.905 40.0838 39.1522C40.0838 39.3994 39.9856 39.6365 39.8108 39.8113ZM26.5675 35.4233C28.319 35.4233 30.0312 34.9039 31.4876 33.9308C32.9439 32.9577 34.079 31.5746 34.7493 29.9564C35.4196 28.3381 35.595 26.5575 35.2532 24.8396C34.9115 23.1217 34.0681 21.5438 32.8296 20.3052C31.591 19.0667 30.0131 18.2233 28.2952 17.8816C26.5773 17.5399 24.7967 17.7152 23.1785 18.3855C21.5602 19.0558 20.1771 20.1909 19.204 21.6472C18.2309 23.1036 17.7115 24.8158 17.7115 26.5673C17.7142 28.9153 18.6481 31.1663 20.3083 32.8265C21.9686 34.4867 24.2196 35.4206 26.5675 35.4233Z" fill="#FFFDFA"/>
</svg>
