<svg width="73" height="32" viewBox="0 0 73 32" fill="none" xmlns="http://www.w3.org/2000/svg">
<path d="M12.2474 11.3356L20.2474 20.3356C20.4236 20.5338 20.5139 20.7939 20.4983 21.0587C20.4827 21.3235 20.3626 21.5712 20.1643 21.7474C19.9661 21.9236 19.706 22.0139 19.4412 21.9983C19.1765 21.9827 18.9287 21.8626 18.7525 21.6643L11.5 13.5052L4.24741 21.6643C4.16017 21.7625 4.05444 21.8425 3.93627 21.8998C3.81811 21.9571 3.68981 21.9906 3.55871 21.9983C3.42762 22.006 3.29628 21.9878 3.17221 21.9448C3.04814 21.9017 2.93376 21.8347 2.83561 21.7474C2.73745 21.6602 2.65744 21.5544 2.60015 21.4363C2.54285 21.3181 2.50939 21.1898 2.50168 21.0587C2.49396 20.9276 2.51215 20.7963 2.55519 20.6722C2.59823 20.5481 2.66529 20.4338 2.75254 20.3356L10.7525 11.3356C10.8464 11.2301 10.9615 11.1456 11.0903 11.0877C11.2191 11.0299 11.3588 11 11.5 11C11.6412 11 11.7808 11.0299 11.9096 11.0877C12.0385 11.1456 12.1536 11.2301 12.2474 11.3356Z" fill="#595550"/>
</svg>
