<svg width="8" height="7" viewBox="0 0 8 7" fill="none" xmlns="http://www.w3.org/2000/svg">
<path d="M4.49512 3.49984L7.39764 0.597321C7.46321 0.53167 7.50003 0.44267 7.5 0.349884C7.49997 0.257098 7.4631 0.16812 7.39749 0.102511C7.33188 0.0369011 7.2429 2.91121e-05 7.15012 1.72315e-08C7.05733 -2.90776e-05 6.96833 0.0367872 6.90268 0.102356L4.00016 3.00488L1.09763 0.102356C1.03198 0.0367872 0.94298 -2.90776e-05 0.850194 1.72315e-08C0.757408 2.91121e-05 0.668431 0.0369011 0.602821 0.102511C0.537212 0.16812 0.50034 0.257098 0.50031 0.349884C0.500281 0.44267 0.537098 0.53167 0.602666 0.597321L3.50519 3.49984L0.602666 6.40237C0.570133 6.43486 0.544321 6.47345 0.526705 6.51592C0.509089 6.55839 0.500014 6.60392 0.5 6.6499C0.499986 6.69588 0.509031 6.74141 0.526621 6.78389C0.54421 6.82638 0.569998 6.86498 0.602511 6.89749C0.635024 6.93 0.673625 6.95579 0.716108 6.97338C0.758591 6.99097 0.804123 7.00001 0.850104 7C0.896084 6.99999 0.941611 6.99091 0.984083 6.9733C1.02655 6.95568 1.06514 6.92987 1.09763 6.89733L4.00016 3.99481L6.90268 6.89733C6.96833 6.9629 7.05733 6.99972 7.15012 6.99969C7.2429 6.99966 7.33188 6.96279 7.39749 6.89718C7.4631 6.83157 7.49997 6.74259 7.5 6.64981C7.50003 6.55702 7.46321 6.46802 7.39764 6.40237L4.49512 3.49984Z" fill="#595550"/>
</svg>
