<svg width="9" height="6" viewBox="0 0 9 6" fill="none" xmlns="http://www.w3.org/2000/svg">
<path d="M4.4309 5.49893L0.680901 1.28018C0.598306 1.18726 0.556008 1.06534 0.56331 0.941228C0.570613 0.817119 0.626918 0.700994 0.71984 0.6184C0.812761 0.535806 0.934687 0.493508 1.0588 0.50081C1.1829 0.508113 1.29903 0.564418 1.38162 0.657339L4.78126 4.48196L8.1809 0.65734C8.2218 0.61133 8.27136 0.573825 8.32675 0.546968C8.38214 0.52011 8.44228 0.504426 8.50373 0.50081C8.56518 0.497195 8.62674 0.505718 8.6849 0.525894C8.74306 0.546071 8.79667 0.577504 8.84268 0.6184C8.88869 0.659297 8.9262 0.708856 8.95306 0.764246C8.97991 0.819637 8.9956 0.879776 8.99921 0.941228C9.00283 1.00268 8.99431 1.06424 8.97413 1.1224C8.95395 1.18056 8.92252 1.23417 8.88162 1.28018L5.13162 5.49893C5.08764 5.54841 5.03368 5.58801 4.97329 5.61513C4.9129 5.64224 4.84746 5.65626 4.78126 5.65626C4.71506 5.65626 4.64962 5.64224 4.58923 5.61513C4.52884 5.58801 4.47488 5.54841 4.4309 5.49893Z" fill="#595550"/>
</svg>
