<svg width="9" height="6" viewBox="0 0 9 6" fill="none" xmlns="http://www.w3.org/2000/svg">
<path d="M5.1316 0.657316L8.8816 4.87607C8.96419 4.96899 9.00649 5.09091 8.99919 5.21502C8.99189 5.33913 8.93558 5.45526 8.84266 5.53785C8.74974 5.62044 8.62781 5.66274 8.5037 5.65544C8.3796 5.64814 8.26347 5.59183 8.18088 5.49891L4.78124 1.67429L1.3816 5.49891C1.3407 5.54492 1.29114 5.58243 1.23575 5.60928C1.18036 5.63614 1.12022 5.65182 1.05877 5.65544C0.99732 5.65906 0.935758 5.65053 0.8776 5.63036C0.819441 5.61018 0.765826 5.57875 0.719815 5.53785C0.673805 5.49695 0.636302 5.44739 0.609445 5.392C0.582587 5.33661 0.566902 5.27647 0.563287 5.21502C0.55967 5.15357 0.568194 5.09201 0.58837 5.03385C0.608546 4.97569 0.63998 4.92208 0.680877 4.87607L4.43088 0.657316C4.47486 0.60784 4.52882 0.568241 4.58921 0.541124C4.64959 0.514007 4.71504 0.499987 4.78124 0.499987C4.84744 0.499987 4.91288 0.514007 4.97327 0.541124C5.03366 0.568241 5.08762 0.60784 5.1316 0.657316Z" fill="#595550"/>
</svg>
