<svg xmlns="http://www.w3.org/2000/svg" width="161" height="44" fill="none"><path fill="#F5AD6A" d="M16.534 32.507c-3.024 2.94-4.904 5.502-6.973 9.545-.29.564-1.198.564-1.488 0C6.005 38.009 4.12 35.45 1.1 32.507a.662.662 0 0 1 0-.975c3.024-2.94 4.905-5.502 6.973-9.545.29-.563 1.199-.563 1.488 0 2.069 4.043 3.953 6.602 6.973 9.545a.662.662 0 0 1 0 .975ZM23.15 5.182c-1.236 1.217-2.006 2.277-2.852 3.95-.118.233-.49.233-.609 0-.846-1.673-1.617-2.732-2.852-3.95a.276.276 0 0 1 0-.403c1.237-1.217 2.006-2.277 2.852-3.95.119-.233.49-.233.61 0 .845 1.673 1.616 2.732 2.852 3.95a.276.276 0 0 1 0 .403ZM160.109 37.354c-1.787 1.723-2.898 3.225-4.12 5.595-.171.33-.708.33-.88 0-1.222-2.37-2.335-3.87-4.12-5.595a.386.386 0 0 1 0-.572c1.787-1.723 2.898-3.225 4.12-5.595.172-.33.709-.33.88 0 1.222 2.37 2.335 3.87 4.12 5.595a.386.386 0 0 1 0 .572Z"/></svg>