<svg xmlns="http://www.w3.org/2000/svg" width="104" height="111" fill="none"><path fill="#F5873E" d="M23.253 49.928C28.351 25.38 62.218 21.916 77.6 38.168c9.188 9.704 9.289 23.15 3.08 34.492-3.115 5.668-7.502 10.651-12.6 14.617-5.574 4.32-11.953 6.04-18.021 9.374-2.571 1.402-5.318 3.052-8.092 3.475-6.669 1.081-8.314-7.81-10.192-11.79-2.786-5.476-5.461-11.738-7.3-18.712-2.218-6.642-2.583-13.197-1.222-19.696Z"/><path fill="#595550" d="M63.08 60.434c-.383-.097-.935-.057-1.472.19-.362.179-.789.522-1.024.914-.252.456-.163.817-.053 1.094.158.356.337.718.554 1.022.221.282.47.549.932.508 1.27-.106 2.138-1.918 1.96-2.731-.093-.521-.41-.873-.898-.997ZM42.229 54.378c.272-.27.74-.512 1.272-.557.366-.02.817.072 1.14.313.36.272.4.644.394.936a7.445 7.445 0 0 1-.116 1.167c-.071.367-.205.716-.594.911-1.059.521-2.387-.653-2.5-1.45-.093-.52.047-.982.404-1.32Z"/><path fill="#FAEDE1" d="M50.548 60.15c-.728-.421-1.43-.859-2.358-.742-2.223.281-1.654 3.46-.944 5.1 1.292 2.47 3.52 3.32 5.925 2.238 1.335-.648 2.896-1.615 3.285-3.14.095-.375.084-.825-.078-1.172-.422-.884-1.58-1.014-2.291-1.172-1.225-.194-2.497-.447-3.539-1.112Z"/><path fill="#4A8A51" d="M77.229 24.3c-1.63-2.307-4.6-2.776-7.127-2.242.843-3.874-1.209-8.357-5.55-9.24-2.899-.552-5.394 1.3-6.764 3.527-.25.412-.478.85-.677 1.307-2.093-1.794-5.014-2.573-7.775-1.333-2.652 1.231-3.533 4.184-3.287 6.789.327 3.303 2.286 7.022 5.522 8.081 2.614.98 14.608 5.373 17.994 4.76a8.672 8.672 0 0 0 3.155-.45c4.535-1.42 7.421-6.962 4.509-11.199Z"/><path fill="#4A8A51" d="M87.834 32.138c-1.051-2.622-3.832-3.766-6.414-3.832 1.717-3.573.758-8.409-3.262-10.273-2.691-1.208-5.548.016-7.396 1.865a10.94 10.94 0 0 0-.961 1.115c-1.62-2.229-4.282-3.663-7.255-3.096-2.865.584-4.406 3.253-4.77 5.843-.446 3.29.6 7.362 3.502 9.14 2.317 1.559 12.968 8.609 16.404 8.797a8.67 8.67 0 0 0 3.174.291c4.74-.33 8.83-5.055 6.978-9.85Z"/><path stroke="#595550" stroke-linecap="round" stroke-width="2" d="M45.296 27.923c-4.533.569-14.746 3.708-19.336 11.72-5.737 10.013-5.524 20.027-1.487 31.746 3.23 9.375 6.304 16.69 7.437 19.176"/><path stroke="#595550" stroke-linecap="round" stroke-linejoin="round" stroke-miterlimit="10" stroke-width="2" d="M26.158 39.845s1.612 4.229 7.853 6.337M21.952 52.286s2.242 4.502 8.128 5.255M81.614 72.727s-6.648 5.201-16.445.466M72.219 84.3s-6.775 4.192-16.263-.578"/></svg>