<svg width="18" height="30" viewBox="0 0 18 30" fill="none" xmlns="http://www.w3.org/2000/svg">
<path d="M1.14939 13.8322L15.2119 1.33217C15.5216 1.05685 15.928 0.915859 16.3417 0.9402C16.7554 0.964542 17.1425 1.15223 17.4178 1.46197C17.6931 1.7717 17.8341 2.17812 17.8098 2.59182C17.7855 3.00551 17.5978 3.3926 17.288 3.66791L4.53932 15L17.288 26.3322C17.4414 26.4685 17.5664 26.6337 17.6559 26.8183C17.7455 27.003 17.7977 27.2034 17.8098 27.4083C17.8219 27.6131 17.7934 27.8183 17.7262 28.0122C17.6589 28.206 17.5542 28.3847 17.4178 28.5381C17.2815 28.6915 17.1163 28.8165 16.9317 28.906C16.747 28.9955 16.5466 29.0478 16.3417 29.0599C16.1369 29.0719 15.9317 29.0435 15.7378 28.9763C15.544 28.909 15.3653 28.8042 15.2119 28.6679L1.14939 16.1679C0.98447 16.0213 0.852472 15.8414 0.762081 15.6401C0.671691 15.4389 0.624958 15.2207 0.624958 15C0.624958 14.7794 0.671691 14.5612 0.762081 14.3599C0.852472 14.1586 0.98447 13.9788 1.14939 13.8322Z" fill="#F27808"/>
</svg>
