<svg width="18" height="30" viewBox="0 0 18 30" fill="none" xmlns="http://www.w3.org/2000/svg">
<path d="M16.8506 16.1678L2.78811 28.6678C2.47837 28.9431 2.07195 29.0841 1.65826 29.0598C1.24456 29.0355 0.857481 28.8478 0.582166 28.538C0.306852 28.2283 0.165859 27.8219 0.1902 27.4082C0.214542 26.9945 0.402226 26.6074 0.711964 26.3321L13.4607 15L0.711964 3.66783C0.558597 3.53151 0.433582 3.36631 0.344058 3.18168C0.254533 2.99704 0.202253 2.79658 0.1902 2.59174C0.178148 2.3869 0.20656 2.18169 0.273814 1.98783C0.341068 1.79397 0.445845 1.61525 0.582166 1.46188C0.718488 1.30852 0.883684 1.1835 1.06832 1.09398C1.25296 1.00446 1.45342 0.952173 1.65826 0.940119C1.8631 0.928066 2.06831 0.956478 2.26217 1.02373C2.45603 1.09099 2.63475 1.19577 2.78811 1.33209L16.8506 13.8321C17.0155 13.9787 17.1475 14.1586 17.2379 14.3599C17.3283 14.5611 17.375 14.7793 17.375 15C17.375 15.2206 17.3283 15.4388 17.2379 15.6401C17.1475 15.8414 17.0155 16.0212 16.8506 16.1678Z" fill="#F27808"/>
</svg>
