<svg width="160" height="110" viewBox="0 0 160 110" fill="none" xmlns="http://www.w3.org/2000/svg">
<path d="M51.3413 49.1485C56.439 24.6005 90.3061 21.1361 105.688 37.3879C114.875 47.0921 114.977 60.5378 108.768 71.88C105.653 77.5484 101.266 82.5315 96.1672 86.4974C90.5942 90.817 84.2146 92.5364 78.1466 95.8715C75.5757 97.2729 72.8285 98.9231 70.0548 99.3465C63.3859 100.427 61.741 91.5365 59.8625 87.5564C57.0772 82.0802 54.4014 75.8186 52.5624 68.8438C50.3449 62.2018 49.9803 55.6475 51.3413 49.1485Z" fill="#F5873E"/>
<path d="M91.1672 59.6537C90.7853 59.5565 90.2329 59.5966 89.6955 59.8439C89.3336 60.0228 88.9073 60.3661 88.672 60.7581C88.4204 61.2137 88.5091 61.5751 88.6194 61.8517C88.7772 62.2082 88.9562 62.5701 89.1726 62.8737C89.3944 63.1561 89.6428 63.4227 90.105 63.3822C91.3745 63.2762 92.2426 61.4638 92.0656 60.6506C91.9723 60.1298 91.6552 59.778 91.1672 59.6537Z" fill="#595550"/>
<path d="M70.3169 53.5982C70.5888 53.3285 71.0572 53.0863 71.5884 53.0408C71.9549 53.0212 72.4058 53.1134 72.7287 53.3537C73.0886 53.6261 73.1295 53.998 73.1229 54.29C73.1106 54.6935 73.077 55.0917 73.0064 55.4577C72.9357 55.8238 72.8015 56.1737 72.413 56.3685C71.354 56.8897 70.0263 55.7157 69.9129 54.9187C69.8196 54.3979 69.9596 53.9365 70.3169 53.5982Z" fill="#595550"/>
<path d="M78.6363 59.3699C77.9081 58.9492 77.2051 58.5114 76.2774 58.6281C74.0548 58.9092 74.6236 62.089 75.3339 63.7285C76.6263 66.1984 78.8534 67.0478 81.2589 65.9663C82.5934 65.318 84.1553 64.3511 84.5434 62.8265C84.6391 62.4509 84.6283 62.0012 84.466 61.654C84.0437 60.7701 82.8864 60.6402 82.1747 60.4825C80.9503 60.2884 79.6782 60.0351 78.6363 59.3699Z" fill="#FFFDFA"/>
<path d="M105.317 23.5204C103.688 21.2134 100.718 20.7444 98.19 21.2777C99.0333 17.4041 96.9811 12.9216 92.6393 12.0386C89.7411 11.4862 87.2455 13.3379 85.8755 15.5651C85.6252 15.9767 85.3981 16.4145 85.1985 16.872C83.1061 15.0786 80.1851 14.2994 77.4243 15.5396C74.7723 16.7706 73.8906 19.7233 74.137 22.3277C74.4639 25.6313 76.4233 29.3505 79.6589 30.4094C82.273 31.3888 94.2672 35.782 97.6529 35.1698C98.7493 35.2164 99.8168 35.0548 100.808 34.7187C105.343 33.3 108.229 27.7568 105.317 23.5204Z" fill="#4A8A51"/>
<path d="M115.922 31.3577C114.871 28.7363 112.09 27.5926 109.508 27.5264C111.225 23.9531 110.266 19.1174 106.246 17.2534C103.554 16.0452 100.698 17.269 98.8498 19.1187C98.511 19.4611 98.1888 19.8345 97.8887 20.2334C96.2682 18.0043 93.6069 16.5702 90.6339 17.1377C87.769 17.7215 86.2279 20.3899 85.8647 22.9806C85.4181 26.2701 86.4635 30.3418 89.3662 32.1209C91.6825 33.6788 102.334 40.7289 105.77 40.9169C106.825 41.216 107.901 41.3059 108.943 41.2084C113.684 40.8779 117.775 36.1532 115.922 31.3577Z" fill="#4A8A51"/>
<path d="M54.2456 39.0654C54.2456 39.0654 55.8575 43.294 62.0984 45.4025" stroke="#FFFDFA" stroke-width="2" stroke-miterlimit="10" stroke-linecap="round" stroke-linejoin="round"/>
<path d="M50.0396 51.5056C50.0396 51.5056 52.2822 56.0077 58.1679 56.7606" stroke="#FFFDFA" stroke-width="2" stroke-miterlimit="10" stroke-linecap="round" stroke-linejoin="round"/>
<path d="M109.702 71.9479C109.702 71.9479 103.054 77.1487 93.2572 72.4135" stroke="#FFFDFA" stroke-width="2" stroke-miterlimit="10" stroke-linecap="round" stroke-linejoin="round"/>
<path d="M100.306 83.5203C100.306 83.5203 93.5322 87.7123 84.0436 82.9426" stroke="#FFFDFA" stroke-width="2" stroke-miterlimit="10" stroke-linecap="round" stroke-linejoin="round"/>
<path d="M15.9736 65.3172C12.9495 68.2567 11.0692 70.8193 9.00093 74.8619C8.71105 75.4256 7.80225 75.4256 7.51237 74.8619C5.44407 70.8193 3.55987 68.2602 0.539665 65.3172C0.253705 65.0406 0.253705 64.6187 0.539665 64.342C3.56378 61.4025 5.44407 58.84 7.51237 54.7973C7.80225 54.2336 8.71105 54.2336 9.00093 54.7973C11.0692 58.84 12.9534 61.399 15.9736 64.342C16.2596 64.6187 16.2596 65.0406 15.9736 65.3172Z" fill="#F5AD6A"/>
<path d="M22.5901 37.9924C21.353 39.2087 20.5838 40.2691 19.7376 41.9419C19.6191 42.1752 19.2473 42.1752 19.1287 41.9419C18.2826 40.2691 17.5118 39.2101 16.2762 37.9924C16.1592 37.8779 16.1592 37.7033 16.2762 37.5888C17.5134 36.3725 18.2826 35.3121 19.1287 33.6393C19.2473 33.406 19.6191 33.406 19.7376 33.6393C20.5838 35.3121 21.3546 36.3711 22.5901 37.5888C22.7071 37.7033 22.7071 37.8779 22.5901 37.9924Z" fill="#F5AD6A"/>
<path d="M159.549 70.1635C157.762 71.8866 156.651 73.3888 155.428 75.7587C155.257 76.0891 154.72 76.0891 154.549 75.7587C153.327 73.3888 152.213 71.8887 150.428 70.1635C150.26 70.0013 150.26 69.754 150.428 69.5918C152.215 67.8686 153.327 66.3665 154.549 63.9966C154.72 63.6662 155.257 63.6662 155.428 63.9966C156.651 66.3665 157.764 67.8666 159.549 69.5918C159.718 69.754 159.718 70.0013 159.549 70.1635Z" fill="#F5AD6A"/>
</svg>
