<svg width="118" height="13" viewBox="0 0 118 13" fill="none" xmlns="http://www.w3.org/2000/svg">
<path d="M9.62869 9.13695C9.83135 9.09428 10.0394 9.13695 10.2527 9.26495C10.5087 9.44628 10.6367 9.64362 10.6367 9.85695C10.6367 10.0703 10.5674 10.2943 10.4287 10.529C10.2794 10.7956 10.066 11.0516 9.78869 11.297C9.51135 11.5316 9.18602 11.7396 8.81269 11.921C8.43935 12.113 8.01802 12.2676 7.54869 12.385C7.09002 12.5023 6.59935 12.5716 6.07669 12.593C5.29802 12.625 4.56735 12.529 3.88469 12.305C3.21269 12.081 2.62069 11.729 2.10869 11.249C1.60735 10.769 1.21269 10.161 0.924688 9.42495C0.636688 8.67828 0.492688 7.79828 0.492688 6.78495C0.492688 5.95295 0.615354 5.18495 0.860687 4.48095C1.11669 3.76628 1.48469 3.14228 1.96469 2.60895C2.44469 2.07562 3.03135 1.65428 3.72469 1.34495C4.42869 1.02495 5.22335 0.843617 6.10869 0.800951C6.58869 0.779617 7.04202 0.811617 7.46869 0.896951C7.89535 0.982284 8.27935 1.09962 8.62069 1.24895C8.97269 1.39828 9.27669 1.57428 9.53269 1.77695C9.78869 1.97962 9.99135 2.18228 10.1407 2.38495C10.3007 2.63028 10.386 2.83828 10.3967 3.00895C10.4074 3.17962 10.2954 3.36628 10.0607 3.56895C9.87935 3.71828 9.67669 3.80362 9.45269 3.82495C9.22869 3.83562 9.02602 3.73428 8.84469 3.52095C8.70602 3.35028 8.54069 3.19028 8.34869 3.04095C8.16735 2.88095 7.95935 2.74762 7.72469 2.64095C7.49002 2.52362 7.23935 2.43295 6.97269 2.36895C6.71669 2.29428 6.44469 2.26228 6.15669 2.27295C5.59135 2.29428 5.06335 2.41695 4.57269 2.64095C4.09269 2.86495 3.67669 3.17428 3.32469 3.56895C2.97269 3.96362 2.69535 4.43828 2.49269 4.99295C2.30069 5.53695 2.20469 6.13962 2.20469 6.80095C2.20469 7.52628 2.30069 8.16095 2.49269 8.70495C2.68469 9.24895 2.95135 9.70762 3.29269 10.081C3.63402 10.4436 4.03402 10.7156 4.49269 10.897C4.96202 11.0676 5.46869 11.1423 6.01269 11.121C6.34335 11.1103 6.66869 11.0623 6.98869 10.977C7.31935 10.8916 7.62335 10.7796 7.90069 10.641C8.17802 10.4916 8.41802 10.3263 8.62069 10.145C8.83402 9.96362 8.99935 9.77162 9.11669 9.56895C9.26602 9.32362 9.43669 9.17962 9.62869 9.13695ZM20.5244 11.025C20.5138 11.409 20.5031 11.7396 20.4924 12.017C20.4711 12.1876 20.4071 12.3263 20.3004 12.433C20.1938 12.5396 20.0604 12.593 19.9004 12.593C19.6978 12.593 19.5538 12.561 19.4684 12.497C19.3831 12.4436 19.3244 12.3583 19.2924 12.241C19.2498 12.0596 19.2124 11.889 19.1804 11.729C19.1484 11.5583 19.1164 11.3556 19.0844 11.121C18.9671 11.3663 18.8071 11.5796 18.6044 11.761C18.4124 11.9316 18.1884 12.0756 17.9324 12.193C17.6764 12.3103 17.4044 12.401 17.1164 12.465C16.8284 12.5396 16.5458 12.5823 16.2684 12.593C15.6604 12.625 15.0844 12.5503 14.5404 12.369C13.9964 12.1983 13.5218 11.9316 13.1164 11.569C12.7111 11.2063 12.3911 10.7583 12.1564 10.225C11.9218 9.68095 11.8098 9.06762 11.8204 8.38495C11.8311 7.73428 11.9484 7.13695 12.1724 6.59295C12.4071 6.03828 12.7271 5.56895 13.1324 5.18495C13.5378 4.79028 14.0178 4.48628 14.5724 4.27295C15.1271 4.05962 15.7351 3.96895 16.3964 4.00095C16.6844 4.02228 16.9564 4.07562 17.2124 4.16095C17.4791 4.23562 17.7244 4.33695 17.9484 4.46495C18.1724 4.58228 18.3698 4.71562 18.5404 4.86495C18.7111 5.01428 18.8444 5.16895 18.9404 5.32895C18.9511 5.21162 18.9564 5.08895 18.9564 4.96095C18.9671 4.82228 18.9724 4.69428 18.9724 4.57695C18.9938 4.44895 19.0524 4.32095 19.1484 4.19295C19.2444 4.06495 19.4311 4.00095 19.7084 4.00095C20.2631 4.00095 20.5511 4.20362 20.5724 4.60895C20.5831 4.95028 20.5884 5.31828 20.5884 5.71295C20.5884 6.10762 20.5884 6.51828 20.5884 6.94495C20.5884 7.41428 20.5831 7.89428 20.5724 8.38495C20.5724 8.86495 20.5671 9.32895 20.5564 9.77695C20.5564 10.2143 20.5458 10.6303 20.5244 11.025ZM17.5804 10.929C17.9111 10.7796 18.1938 10.577 18.4284 10.321C18.6631 10.065 18.8444 9.76628 18.9724 9.42495C19.1004 9.07295 19.1644 8.68362 19.1644 8.25695C19.1644 7.87295 19.0898 7.51562 18.9404 7.18495C18.8018 6.84362 18.6098 6.55028 18.3644 6.30495C18.1191 6.05962 17.8258 5.86228 17.4844 5.71295C17.1431 5.55295 16.7644 5.45695 16.3484 5.42495C15.9324 5.43562 15.5484 5.52095 15.1964 5.68095C14.8444 5.84095 14.5351 6.05428 14.2684 6.32095C14.0018 6.58762 13.7938 6.89695 13.6444 7.24895C13.4951 7.60095 13.4204 7.96895 13.4204 8.35295C13.4204 8.84362 13.5058 9.27028 13.6764 9.63295C13.8471 9.99562 14.0711 10.2943 14.3484 10.529C14.6364 10.7636 14.9671 10.9343 15.3404 11.041C15.7244 11.1476 16.1244 11.1903 16.5404 11.169C16.9138 11.1476 17.2604 11.0676 17.5804 10.929ZM23.7992 11.649C23.7779 12.0223 23.7032 12.273 23.5752 12.401C23.4579 12.529 23.2872 12.593 23.0632 12.593C22.7965 12.593 22.6152 12.545 22.5192 12.449C22.4339 12.353 22.3805 12.129 22.3592 11.777C22.2952 10.7103 22.2419 9.60628 22.1992 8.46495C22.1565 7.31295 22.1352 6.10762 22.1352 4.84895C22.1352 4.57162 22.1779 4.36895 22.2632 4.24095C22.3592 4.10228 22.5779 4.02228 22.9192 4.00095C23.2499 3.97962 23.4845 4.02228 23.6232 4.12895C23.7619 4.23562 23.8365 4.40095 23.8472 4.62495C23.8472 4.72095 23.8472 4.84362 23.8472 4.99295C23.8579 5.13162 23.8632 5.28628 23.8632 5.45695C23.8632 5.61695 23.8632 5.78228 23.8632 5.95295C23.8632 6.12362 23.8632 6.27828 23.8632 6.41695C24.0445 6.05428 24.2739 5.71828 24.5512 5.40895C24.8392 5.09962 25.1539 4.83828 25.4952 4.62495C25.8365 4.41162 26.2045 4.25162 26.5992 4.14495C26.9939 4.03828 27.3939 3.99562 27.7992 4.01695C28.3859 4.04895 28.6579 4.33162 28.6152 4.86495C28.5832 5.27028 28.4712 5.53695 28.2792 5.66495C28.0872 5.78228 27.8419 5.83028 27.5432 5.80895C27.0419 5.77695 26.5725 5.86762 26.1352 6.08095C25.6979 6.28362 25.3085 6.54495 24.9672 6.86495C24.6365 7.17428 24.3699 7.51562 24.1672 7.88895C23.9752 8.25162 23.8739 8.58228 23.8632 8.88095L23.7992 11.649ZM31.5179 11.649C31.4966 12.0223 31.4219 12.273 31.2939 12.401C31.1766 12.529 31.0059 12.593 30.7819 12.593C30.5153 12.593 30.3339 12.545 30.2379 12.449C30.1526 12.353 30.0993 12.129 30.0779 11.777C30.0139 10.7103 29.9606 9.60628 29.9179 8.46495C29.8753 7.31295 29.8539 6.10762 29.8539 4.84895C29.8539 4.57162 29.8966 4.36895 29.9819 4.24095C30.0779 4.10228 30.2966 4.02228 30.6379 4.00095C30.9686 3.97962 31.2033 4.02228 31.3419 4.12895C31.4806 4.23562 31.5553 4.40095 31.5659 4.62495C31.5659 4.72095 31.5659 4.84362 31.5659 4.99295C31.5766 5.13162 31.5819 5.28628 31.5819 5.45695C31.5819 5.61695 31.5819 5.78228 31.5819 5.95295C31.5819 6.12362 31.5819 6.27828 31.5819 6.41695C31.7633 6.05428 31.9926 5.71828 32.2699 5.40895C32.5579 5.09962 32.8726 4.83828 33.2139 4.62495C33.5553 4.41162 33.9233 4.25162 34.3179 4.14495C34.7126 4.03828 35.1126 3.99562 35.5179 4.01695C36.1046 4.04895 36.3766 4.33162 36.3339 4.86495C36.3019 5.27028 36.1899 5.53695 35.9979 5.66495C35.8059 5.78228 35.5606 5.83028 35.2619 5.80895C34.7606 5.77695 34.2913 5.86762 33.8539 6.08095C33.4166 6.28362 33.0273 6.54495 32.6859 6.86495C32.3553 7.17428 32.0886 7.51562 31.8859 7.88895C31.6939 8.25162 31.5926 8.58228 31.5819 8.88095L31.5179 11.649ZM45.3142 9.96895C45.1009 10.4916 44.8022 10.945 44.4182 11.329C44.0342 11.7023 43.5702 11.9956 43.0262 12.209C42.4929 12.433 41.9009 12.5503 41.2502 12.561C40.5889 12.5716 39.9915 12.4756 39.4582 12.273C38.9355 12.0703 38.4822 11.7876 38.0982 11.425C37.7249 11.0623 37.4369 10.641 37.2342 10.161C37.0315 9.67028 36.9249 9.14228 36.9142 8.57695C36.9035 7.95828 36.9889 7.38228 37.1702 6.84895C37.3515 6.30495 37.6182 5.83028 37.9702 5.42495C38.3329 5.01962 38.7755 4.69428 39.2982 4.44895C39.8209 4.20362 40.4182 4.06495 41.0902 4.03295C41.7729 4.00095 42.3969 4.08628 42.9622 4.28895C43.5275 4.48095 44.0075 4.76362 44.4022 5.13695C44.8075 5.51028 45.1169 5.95828 45.3302 6.48095C45.5435 7.00362 45.6502 7.58495 45.6502 8.22495C45.6502 8.85428 45.5382 9.43562 45.3142 9.96895ZM42.4182 10.897C42.7489 10.737 43.0315 10.529 43.2662 10.273C43.5009 10.0063 43.6822 9.69162 43.8102 9.32895C43.9382 8.95562 43.9969 8.54495 43.9862 8.09695C43.9649 7.25428 43.7035 6.59295 43.2022 6.11295C42.7115 5.63295 42.0022 5.41428 41.0742 5.45695C40.6689 5.47828 40.3115 5.56895 40.0022 5.72895C39.6929 5.88895 39.4315 6.10228 39.2182 6.36895C39.0155 6.62495 38.8555 6.92362 38.7382 7.26495C38.6315 7.59562 38.5782 7.95295 38.5782 8.33695C38.5782 9.20095 38.8129 9.88895 39.2822 10.401C39.7515 10.913 40.4395 11.1583 41.3462 11.137C41.7302 11.1263 42.0875 11.0463 42.4182 10.897ZM50.3959 10.673C50.3959 10.8543 50.4173 10.9823 50.4599 11.057C50.5026 11.121 50.5879 11.1583 50.7159 11.169C50.8439 11.1796 50.9879 11.185 51.1479 11.185C51.3079 11.1743 51.4679 11.1636 51.6279 11.153C51.7879 11.1316 51.9426 11.105 52.0919 11.073C52.2519 11.041 52.3906 11.009 52.5079 10.977C52.6466 10.9343 52.7746 10.9236 52.8919 10.945C53.0093 10.9556 53.1159 11.0836 53.2119 11.329C53.2759 11.5103 53.2706 11.681 53.1959 11.841C53.1319 12.0116 52.9773 12.1503 52.7319 12.257C52.5506 12.3316 52.3426 12.3956 52.1079 12.449C51.8839 12.5023 51.6439 12.5396 51.3879 12.561C51.1426 12.5823 50.8919 12.593 50.6359 12.593C50.3906 12.593 50.1613 12.5716 49.9479 12.529C49.6386 12.4756 49.3773 12.3263 49.1639 12.081C48.9613 11.8463 48.8493 11.505 48.8279 11.057C48.8173 10.801 48.8066 10.465 48.7959 10.049C48.7853 9.62228 48.7746 9.15828 48.7639 8.65695C48.7533 8.14495 48.7426 7.61162 48.7319 7.05695C48.7319 6.49162 48.7266 5.94228 48.7159 5.40895C48.3853 5.41962 48.0653 5.42495 47.7559 5.42495C47.4573 5.42495 47.1746 5.42495 46.9079 5.42495C46.6946 5.42495 46.5399 5.37695 46.4439 5.28095C46.3586 5.18495 46.3159 5.00895 46.3159 4.75295C46.3159 4.50762 46.3533 4.33695 46.4279 4.24095C46.5133 4.13428 46.6466 4.07562 46.8279 4.06495C47.0733 4.05428 47.3559 4.04362 47.6759 4.03295C47.9959 4.02228 48.3426 4.01162 48.7159 4.00095L48.7319 1.88895C48.7426 1.53695 48.7959 1.29695 48.8919 1.16895C48.9986 1.04095 49.2279 0.971617 49.5799 0.960951C49.8573 0.950284 50.0599 1.00895 50.1879 1.13695C50.3266 1.25428 50.3959 1.49428 50.3959 1.85695V3.96895C50.9293 3.95828 51.4306 3.95295 51.8999 3.95295C52.3693 3.94228 52.7639 3.93695 53.0839 3.93695C53.2439 3.93695 53.3666 3.96895 53.4519 4.03295C53.5373 4.09695 53.5853 4.25162 53.5959 4.49695C53.6066 4.79562 53.5586 5.00362 53.4519 5.12095C53.3559 5.22762 53.2119 5.28628 53.0199 5.29695C52.6786 5.31828 52.2786 5.33428 51.8199 5.34495C51.3719 5.35562 50.8973 5.37162 50.3959 5.39295V10.673Z" fill="#F27808"/>
<path d="M59.5021 12.273C59.4167 12.0596 59.3634 11.729 59.3421 11.281C59.3207 10.513 59.3047 9.72362 59.2941 8.91295C59.2941 8.09162 59.2941 7.27562 59.2941 6.46495C59.2941 5.64362 59.2941 4.82762 59.2941 4.01695C59.3047 3.20628 59.3207 2.42228 59.3421 1.66495C59.3634 1.23828 59.5447 1.00895 59.8861 0.976951C60.1741 0.955618 60.4887 0.934284 60.8301 0.912951C61.1714 0.891617 61.5181 0.875617 61.8701 0.86495C62.2327 0.843617 62.5954 0.832951 62.9581 0.832951C63.3207 0.822284 63.6727 0.816951 64.0141 0.816951C65.3261 0.838284 66.3554 1.15828 67.1021 1.77695C67.8487 2.39562 68.2327 3.31828 68.2541 4.54495C68.2647 5.25962 68.1687 5.87828 67.9661 6.40095C67.7741 6.91295 67.4914 7.33962 67.1181 7.68095C66.7447 8.02228 66.2967 8.27828 65.7741 8.44895C65.2621 8.61962 64.6967 8.71562 64.0781 8.73695C63.8647 8.74762 63.6194 8.75828 63.3421 8.76895C63.0754 8.76895 62.7981 8.76895 62.5101 8.76895C62.2221 8.76895 61.9394 8.76895 61.6621 8.76895C61.3847 8.76895 61.1341 8.75828 60.9101 8.73695C60.8994 9.11028 60.8941 9.52095 60.8941 9.96895C60.9047 10.417 60.8994 10.8063 60.8781 11.137C60.8674 11.3503 60.8514 11.5476 60.8301 11.729C60.8087 11.8996 60.7714 12.049 60.7181 12.177C60.6647 12.305 60.5847 12.4063 60.4781 12.481C60.3714 12.5556 60.2327 12.593 60.0621 12.593C59.7847 12.593 59.5981 12.4863 59.5021 12.273ZM60.8781 6.22495C60.8781 6.66228 60.8781 7.01962 60.8781 7.29695C61.0701 7.31828 61.3101 7.33428 61.5981 7.34495C61.8967 7.34495 62.1954 7.34495 62.4941 7.34495C62.8034 7.34495 63.0967 7.34495 63.3741 7.34495C63.6514 7.33428 63.8754 7.31828 64.0461 7.29695C64.3874 7.26495 64.7074 7.19562 65.0061 7.08895C65.3154 6.98228 65.5874 6.83295 65.8221 6.64095C66.0567 6.44895 66.2381 6.20362 66.3661 5.90495C66.5047 5.60628 66.5794 5.24895 66.5901 4.83295C66.6007 4.37428 66.5421 3.98495 66.4141 3.66495C66.2967 3.33428 66.1261 3.06762 65.9021 2.86495C65.6781 2.66228 65.4061 2.51295 65.0861 2.41695C64.7661 2.32095 64.4141 2.26762 64.0301 2.25695C63.8487 2.25695 63.6194 2.25695 63.3421 2.25695C63.0754 2.25695 62.7927 2.26228 62.4941 2.27295C62.2061 2.28362 61.9234 2.29428 61.6461 2.30495C61.3687 2.31562 61.1394 2.33162 60.9581 2.35295C60.9474 2.64095 60.9367 3.00895 60.9261 3.45695C60.9154 3.90495 60.9047 4.36895 60.8941 4.84895C60.8941 5.31828 60.8887 5.77695 60.8781 6.22495ZM71.3788 11.841C71.3575 12.161 71.2721 12.3743 71.1228 12.481C70.9735 12.5876 70.7815 12.6303 70.5468 12.609C70.3015 12.5876 70.1308 12.5183 70.0348 12.401C69.9388 12.2836 69.8855 12.0436 69.8748 11.681C69.8428 9.94228 69.8215 8.20895 69.8108 6.48095C69.8108 4.75295 69.8161 3.00895 69.8268 1.24895C69.8268 0.939617 69.8855 0.742284 70.0028 0.656951C70.1308 0.560951 70.3655 0.512951 70.7068 0.512951C71.0055 0.512951 71.2188 0.566284 71.3468 0.672951C71.4855 0.779617 71.5548 0.987617 71.5548 1.29695C71.5548 2.05428 71.5495 2.91828 71.5388 3.88895C71.5281 4.85962 71.5121 5.83562 71.4908 6.81695C71.4801 7.79828 71.4641 8.73162 71.4428 9.61695C71.4321 10.5023 71.4108 11.2436 71.3788 11.841ZM82.0088 11.025C81.9981 11.409 81.9875 11.7396 81.9768 12.017C81.9555 12.1876 81.8915 12.3263 81.7848 12.433C81.6781 12.5396 81.5448 12.593 81.3848 12.593C81.1821 12.593 81.0381 12.561 80.9528 12.497C80.8675 12.4436 80.8088 12.3583 80.7768 12.241C80.7341 12.0596 80.6968 11.889 80.6648 11.729C80.6328 11.5583 80.6008 11.3556 80.5688 11.121C80.4515 11.3663 80.2915 11.5796 80.0888 11.761C79.8968 11.9316 79.6728 12.0756 79.4168 12.193C79.1608 12.3103 78.8888 12.401 78.6008 12.465C78.3128 12.5396 78.0301 12.5823 77.7528 12.593C77.1448 12.625 76.5688 12.5503 76.0248 12.369C75.4808 12.1983 75.0061 11.9316 74.6008 11.569C74.1955 11.2063 73.8755 10.7583 73.6408 10.225C73.4061 9.68095 73.2941 9.06762 73.3048 8.38495C73.3155 7.73428 73.4328 7.13695 73.6568 6.59295C73.8915 6.03828 74.2115 5.56895 74.6168 5.18495C75.0221 4.79028 75.5021 4.48628 76.0568 4.27295C76.6115 4.05962 77.2195 3.96895 77.8808 4.00095C78.1688 4.02228 78.4408 4.07562 78.6968 4.16095C78.9635 4.23562 79.2088 4.33695 79.4328 4.46495C79.6568 4.58228 79.8541 4.71562 80.0248 4.86495C80.1955 5.01428 80.3288 5.16895 80.4248 5.32895C80.4355 5.21162 80.4408 5.08895 80.4408 4.96095C80.4515 4.82228 80.4568 4.69428 80.4568 4.57695C80.4781 4.44895 80.5368 4.32095 80.6328 4.19295C80.7288 4.06495 80.9155 4.00095 81.1928 4.00095C81.7475 4.00095 82.0355 4.20362 82.0568 4.60895C82.0675 4.95028 82.0728 5.31828 82.0728 5.71295C82.0728 6.10762 82.0728 6.51828 82.0728 6.94495C82.0728 7.41428 82.0675 7.89428 82.0568 8.38495C82.0568 8.86495 82.0515 9.32895 82.0408 9.77695C82.0408 10.2143 82.0301 10.6303 82.0088 11.025ZM79.0648 10.929C79.3955 10.7796 79.6781 10.577 79.9128 10.321C80.1475 10.065 80.3288 9.76628 80.4568 9.42495C80.5848 9.07295 80.6488 8.68362 80.6488 8.25695C80.6488 7.87295 80.5741 7.51562 80.4248 7.18495C80.2861 6.84362 80.0941 6.55028 79.8488 6.30495C79.6035 6.05962 79.3101 5.86228 78.9688 5.71295C78.6275 5.55295 78.2488 5.45695 77.8328 5.42495C77.4168 5.43562 77.0328 5.52095 76.6808 5.68095C76.3288 5.84095 76.0195 6.05428 75.7528 6.32095C75.4861 6.58762 75.2781 6.89695 75.1288 7.24895C74.9795 7.60095 74.9048 7.96895 74.9048 8.35295C74.9048 8.84362 74.9901 9.27028 75.1608 9.63295C75.3315 9.99562 75.5555 10.2943 75.8328 10.529C76.1208 10.7636 76.4515 10.9343 76.8248 11.041C77.2088 11.1476 77.6088 11.1903 78.0248 11.169C78.3981 11.1476 78.7448 11.0676 79.0648 10.929ZM89.6036 7.72895C89.6036 6.90762 89.4009 6.32095 88.9956 5.96895C88.6009 5.61695 88.0782 5.45695 87.4276 5.48895C87.1289 5.51028 86.8516 5.57962 86.5956 5.69695C86.3502 5.81428 86.1316 5.96895 85.9396 6.16095C85.7582 6.35295 85.6142 6.57695 85.5076 6.83295C85.4009 7.07828 85.3476 7.34495 85.3476 7.63295C85.3369 8.30495 85.3262 8.97162 85.3156 9.63295C85.3156 10.2836 85.3049 10.9556 85.2836 11.649C85.2622 12.0223 85.1876 12.273 85.0596 12.401C84.9422 12.529 84.7716 12.593 84.5476 12.593C84.2809 12.593 84.0996 12.545 84.0036 12.449C83.9182 12.353 83.8649 12.129 83.8436 11.777C83.7796 10.7103 83.7262 9.60628 83.6836 8.46495C83.6409 7.31295 83.6196 6.10762 83.6196 4.84895C83.6196 4.57162 83.6729 4.36895 83.7796 4.24095C83.8969 4.10228 84.1262 4.02228 84.4676 4.00095C84.7769 3.97962 84.9902 4.02228 85.1076 4.12895C85.2356 4.22495 85.3102 4.37962 85.3316 4.59295C85.3422 4.67828 85.3476 4.80628 85.3476 4.97695C85.3476 5.13695 85.3529 5.26495 85.3636 5.36095C85.5556 5.01962 85.8382 4.72095 86.2116 4.46495C86.5849 4.20895 87.0489 4.05962 87.6036 4.01695C88.1902 3.97428 88.7076 4.03828 89.1556 4.20895C89.6036 4.36895 89.9822 4.60895 90.2916 4.92895C90.6009 5.24895 90.8356 5.63295 90.9956 6.08095C91.1556 6.51828 91.2356 6.99295 91.2356 7.50495C91.2356 7.76095 91.2249 8.08628 91.2036 8.48095C91.1929 8.86495 91.1716 9.27028 91.1396 9.69695C91.1182 10.113 91.0916 10.5236 91.0596 10.929C91.0382 11.3343 91.0169 11.6703 90.9956 11.937C90.9742 12.2463 90.9156 12.4383 90.8196 12.513C90.7236 12.5983 90.5316 12.6356 90.2436 12.625C90.0302 12.6143 89.8702 12.5716 89.7636 12.497C89.6569 12.4223 89.6036 12.2036 89.6036 11.841V7.72895ZM98.7442 7.72895C98.7442 6.90762 98.5415 6.32095 98.1362 5.96895C97.7415 5.61695 97.2189 5.45695 96.5682 5.48895C96.2695 5.51028 95.9922 5.57962 95.7362 5.69695C95.4909 5.81428 95.2722 5.96895 95.0802 6.16095C94.8989 6.35295 94.7549 6.57695 94.6482 6.83295C94.5415 7.07828 94.4882 7.34495 94.4882 7.63295C94.4775 8.30495 94.4669 8.97162 94.4562 9.63295C94.4562 10.2836 94.4455 10.9556 94.4242 11.649C94.4029 12.0223 94.3282 12.273 94.2002 12.401C94.0829 12.529 93.9122 12.593 93.6882 12.593C93.4215 12.593 93.2402 12.545 93.1442 12.449C93.0589 12.353 93.0055 12.129 92.9842 11.777C92.9202 10.7103 92.8669 9.60628 92.8242 8.46495C92.7815 7.31295 92.7602 6.10762 92.7602 4.84895C92.7602 4.57162 92.8135 4.36895 92.9202 4.24095C93.0375 4.10228 93.2669 4.02228 93.6082 4.00095C93.9175 3.97962 94.1309 4.02228 94.2482 4.12895C94.3762 4.22495 94.4509 4.37962 94.4722 4.59295C94.4829 4.67828 94.4882 4.80628 94.4882 4.97695C94.4882 5.13695 94.4935 5.26495 94.5042 5.36095C94.6962 5.01962 94.9789 4.72095 95.3522 4.46495C95.7255 4.20895 96.1895 4.05962 96.7442 4.01695C97.3309 3.97428 97.8482 4.03828 98.2962 4.20895C98.7442 4.36895 99.1229 4.60895 99.4322 4.92895C99.7415 5.24895 99.9762 5.63295 100.136 6.08095C100.296 6.51828 100.376 6.99295 100.376 7.50495C100.376 7.76095 100.366 8.08628 100.344 8.48095C100.334 8.86495 100.312 9.27028 100.28 9.69695C100.259 10.113 100.232 10.5236 100.2 10.929C100.179 11.3343 100.158 11.6703 100.136 11.937C100.115 12.2463 100.056 12.4383 99.9602 12.513C99.8642 12.5983 99.6722 12.6356 99.3842 12.625C99.1709 12.6143 99.0109 12.5716 98.9042 12.497C98.7975 12.4223 98.7442 12.2036 98.7442 11.841V7.72895ZM109.581 6.44895C109.751 6.97162 109.815 7.53695 109.773 8.14495C109.751 8.32628 109.698 8.49162 109.613 8.64095C109.538 8.77962 109.431 8.85428 109.293 8.86495C108.354 8.93962 107.389 9.00362 106.397 9.05695C105.405 9.09962 104.429 9.15295 103.469 9.21695C103.469 9.84628 103.677 10.3423 104.093 10.705C104.509 11.057 105.143 11.233 105.997 11.233C106.199 11.233 106.413 11.2116 106.637 11.169C106.861 11.1263 107.074 11.0676 107.277 10.993C107.49 10.9076 107.682 10.8116 107.853 10.705C108.023 10.5983 108.157 10.4863 108.253 10.369C108.434 10.177 108.594 10.0703 108.733 10.049C108.871 10.0276 109.015 10.0756 109.165 10.193C109.41 10.385 109.543 10.5556 109.565 10.705C109.597 10.8436 109.533 11.0196 109.373 11.233C109.245 11.4143 109.069 11.585 108.845 11.745C108.631 11.905 108.375 12.049 108.077 12.177C107.778 12.305 107.447 12.4063 107.085 12.481C106.722 12.5663 106.343 12.609 105.949 12.609C105.309 12.609 104.733 12.5236 104.221 12.353C103.709 12.193 103.271 11.9423 102.909 11.601C102.557 11.249 102.279 10.817 102.077 10.305C101.885 9.79295 101.789 9.19028 101.789 8.49695C101.789 7.84628 101.879 7.25428 102.061 6.72095C102.242 6.17695 102.503 5.70762 102.845 5.31295C103.197 4.91828 103.618 4.60895 104.109 4.38495C104.61 4.16095 105.181 4.03295 105.821 4.00095C106.461 3.96895 107.031 4.05428 107.533 4.25695C108.045 4.44895 108.471 4.73162 108.813 5.10495C109.154 5.47828 109.41 5.92628 109.581 6.44895ZM103.597 6.92895C103.501 7.21695 103.453 7.51562 103.453 7.82495C103.549 7.82495 103.714 7.81962 103.949 7.80895C104.194 7.79828 104.471 7.78762 104.781 7.77695C105.09 7.75562 105.415 7.73962 105.757 7.72895C106.098 7.70762 106.429 7.68628 106.749 7.66495C107.069 7.64362 107.357 7.62762 107.613 7.61695C107.869 7.59562 108.061 7.57962 108.189 7.56895C108.146 6.88628 107.917 6.34228 107.501 5.93695C107.095 5.53162 106.509 5.34495 105.741 5.37695C105.389 5.39828 105.069 5.47828 104.781 5.61695C104.493 5.75562 104.247 5.93695 104.045 6.16095C103.853 6.38495 103.703 6.64095 103.597 6.92895ZM112.909 11.649C112.887 12.0223 112.813 12.273 112.685 12.401C112.567 12.529 112.397 12.593 112.173 12.593C111.906 12.593 111.725 12.545 111.629 12.449C111.543 12.353 111.49 12.129 111.469 11.777C111.405 10.7103 111.351 9.60628 111.309 8.46495C111.266 7.31295 111.245 6.10762 111.245 4.84895C111.245 4.57162 111.287 4.36895 111.373 4.24095C111.469 4.10228 111.687 4.02228 112.029 4.00095C112.359 3.97962 112.594 4.02228 112.733 4.12895C112.871 4.23562 112.946 4.40095 112.957 4.62495C112.957 4.72095 112.957 4.84362 112.957 4.99295C112.967 5.13162 112.973 5.28628 112.973 5.45695C112.973 5.61695 112.973 5.78228 112.973 5.95295C112.973 6.12362 112.973 6.27828 112.973 6.41695C113.154 6.05428 113.383 5.71828 113.661 5.40895C113.949 5.09962 114.263 4.83828 114.605 4.62495C114.946 4.41162 115.314 4.25162 115.709 4.14495C116.103 4.03828 116.503 3.99562 116.909 4.01695C117.495 4.04895 117.767 4.33162 117.725 4.86495C117.693 5.27028 117.581 5.53695 117.389 5.66495C117.197 5.78228 116.951 5.83028 116.653 5.80895C116.151 5.77695 115.682 5.86762 115.245 6.08095C114.807 6.28362 114.418 6.54495 114.077 6.86495C113.746 7.17428 113.479 7.51562 113.277 7.88895C113.085 8.25162 112.983 8.58228 112.973 8.88095L112.909 11.649Z" fill="#4A8A51"/>
</svg>
